<svg class="animated" id="freepik_stories-personalized-workouts" xmlns="http://www.w3.org/2000/svg" viewBox="0 0 500 500" version="1.1" xmlns:xlink="http://www.w3.org/1999/xlink" xmlns:svgjs="http://svgjs.com/svgjs"><style>svg#freepik_stories-personalized-workouts:not(.animated) .animable {opacity: 0;}svg#freepik_stories-personalized-workouts.animated #freepik--screen-2--inject-103 {animation: 3s Infinite  linear floating;animation-delay: 0s;}svg#freepik_stories-personalized-workouts.animated #freepik--screen-1--inject-103 {animation: 3s Infinite  linear floating;animation-delay: 0s;}            @keyframes floating {                0% {                    opacity: 1;                    transform: translateY(0px);                }                50% {                    transform: translateY(-10px);                }                100% {                    opacity: 1;                    transform: translateY(0px);                }            }        </style><g id="freepik--background-simple--inject-103" class="animable" style="transform-origin: 250.003px 226.52px;"><path d="M354.67,191.27c-6.78-25.07,21.71-78.53-.3-94.29C327,77.39,269,135.42,235,138.34c-36.42,3.13-119.24-47.56-143.45-22.17-28.72,30.13,51.6,107.51,60,147.59,4.73,22.54-12.54,81.15,8.57,93,33.4,18.75,93.1-47.38,130.55-55.82,29.09-6.56,109.13,14.51,122.11-10.66C426.22,264.22,362.34,219.61,354.67,191.27Z" style="fill: rgb(23, 86, 122); transform-origin: 250.003px 226.52px;" id="elgqozhqjhy9" class="animable"></path><g id="el9tmlkistaok"><path d="M354.67,191.27c-6.78-25.07,21.71-78.53-.3-94.29C327,77.39,269,135.42,235,138.34c-36.42,3.13-119.24-47.56-143.45-22.17-28.72,30.13,51.6,107.51,60,147.59,4.73,22.54-12.54,81.15,8.57,93,33.4,18.75,93.1-47.38,130.55-55.82,29.09-6.56,109.13,14.51,122.11-10.66C426.22,264.22,362.34,219.61,354.67,191.27Z" style="fill: rgb(255, 255, 255); opacity: 0.9; transform-origin: 250.003px 226.52px;" class="animable"></path></g></g><g id="freepik--Shadow--inject-103" class="animable" style="transform-origin: 250px 412.39px;"><ellipse id="freepik--path--inject-103" cx="250" cy="412.39" rx="193.89" ry="11.32" style="fill: rgb(245, 245, 245); transform-origin: 250px 412.39px;" class="animable"></ellipse></g><g id="freepik--Drumbbell--inject-103" class="animable" style="transform-origin: 288.44px 375.565px;"><path d="M288,384.52a19.93,19.93,0,0,1-14.17-5.86L267.14,372A20,20,0,0,1,281.3,337.8h13.33A20,20,0,0,1,308.79,372h0l-6.66,6.67A19.89,19.89,0,0,1,288,384.52Zm-6.67-38.71a12,12,0,0,0-8.5,20.52l6.67,6.66a12,12,0,0,0,17,0l6.66-6.66a12,12,0,0,0-8.5-20.52Z" style="fill: rgb(38, 50, 56); transform-origin: 287.965px 361.16px;" id="elxy4n68ycb5" class="animable"></path><g id="elmvf088tnmb8"><g style="opacity: 0.4; transform-origin: 287.965px 361.16px;" class="animable"><path d="M288,384.52a19.93,19.93,0,0,1-14.17-5.86L267.14,372A20,20,0,0,1,281.3,337.8h13.33A20,20,0,0,1,308.79,372h0l-6.66,6.67A19.89,19.89,0,0,1,288,384.52Zm-6.67-38.71a12,12,0,0,0-8.5,20.52l6.67,6.66a12,12,0,0,0,17,0l6.66-6.66a12,12,0,0,0-8.5-20.52Z" style="fill: rgb(255, 255, 255); transform-origin: 287.965px 361.16px;" id="elkip04epa9kr" class="animable"></path></g></g><path d="M319,393.47c0,17.77-13.68,19.86-30.56,19.86s-30.56-2.09-30.56-19.86,13.69-32.17,30.56-32.17S319,375.71,319,393.47Z" style="fill: rgb(38, 50, 56); transform-origin: 288.44px 387.315px;" id="eli2nbt77lgfr" class="animable"></path></g><g id="freepik--screen-2--inject-103" class="animable" style="transform-origin: 376.9px 215.425px;"><g id="eljcpix2v1c1"><path d="M426.46,135.44l-.23,3.25-11,156.72A11.45,11.45,0,0,1,404,305.92H337.11a9.67,9.67,0,0,1-9.77-10.51l11-156.72.23-3.25a11.45,11.45,0,0,1,11.24-10.51h17.4a2.09,2.09,0,0,1,2.11,2l0,.54a5.08,5.08,0,0,0,5.14,4.83H391a6,6,0,0,0,5.82-4.83l.11-.54a2.48,2.48,0,0,1,2.39-2h17.39A9.67,9.67,0,0,1,426.46,135.44Z" style="fill: rgb(38, 50, 56); opacity: 0.8; transform-origin: 376.9px 215.425px;" class="animable"></path></g><g id="elk82scudhrgf"><path d="M426.46,135.44l-.23,3.25-11,156.72A11.45,11.45,0,0,1,404,305.92H337.11a9.67,9.67,0,0,1-9.77-10.51l11-156.72.23-3.25a11.45,11.45,0,0,1,11.24-10.51h17.4a2.09,2.09,0,0,1,2.11,2l0,.54a5.08,5.08,0,0,0,5.14,4.83H391a6,6,0,0,0,5.82-4.83l.11-.54a2.48,2.48,0,0,1,2.39-2h17.39A9.67,9.67,0,0,1,426.46,135.44Z" style="fill: rgb(38, 50, 56); opacity: 0.8; transform-origin: 376.9px 215.425px;" class="animable"></path></g><g id="el9wc0ih7241k"><path d="M426.46,135.44l-.23,3.25-11,156.72A11.45,11.45,0,0,1,404,305.92H337.11a9.67,9.67,0,0,1-9.77-10.51l11-156.72.23-3.25a11.45,11.45,0,0,1,11.24-10.51h17.4a2.09,2.09,0,0,1,2.11,2l0,.54a5.08,5.08,0,0,0,5.14,4.83H391a6,6,0,0,0,5.82-4.83l.11-.54a2.48,2.48,0,0,1,2.39-2h17.39A9.67,9.67,0,0,1,426.46,135.44Z" style="fill: rgb(255, 255, 255); opacity: 0.2; transform-origin: 376.9px 215.425px;" class="animable"></path></g><polygon points="346.03 132.26 347.44 132.26 347.54 130.85 346.13 130.85 346.03 132.26" style="fill: rgb(255, 255, 255); transform-origin: 346.785px 131.555px;" id="el6a0lcqd7vev" class="animable"></polygon><polygon points="348.94 130.85 348.85 132.26 350.25 132.26 350.35 130.85 350.45 129.45 349.04 129.45 348.94 130.85" style="fill: rgb(255, 255, 255); transform-origin: 349.65px 130.855px;" id="elgnuz1zstlm" class="animable"></polygon><polygon points="351.96 128.04 351.86 129.45 351.76 130.85 351.66 132.26 353.07 132.26 353.17 130.85 353.27 129.45 353.36 128.04 351.96 128.04" style="fill: rgb(255, 255, 255); transform-origin: 352.51px 130.15px;" id="elvi778kw74x" class="animable"></polygon><path d="M412.48,128.13l-.07,1h-.69l-.15,2.07h.69l-.07,1h6.19l.29-4.13Zm2.53,3.1H413l.14-2.07h2.07Z" style="fill: rgb(255, 255, 255); transform-origin: 415.12px 130.135px;" id="elgh3n4p14ngg" class="animable"></path><path d="M416.47,139.27a1.37,1.37,0,0,1-1.34,1.25,1.15,1.15,0,0,1-1.16-1.25A1.35,1.35,0,0,1,415.3,138,1.15,1.15,0,0,1,416.47,139.27Z" style="fill: rgb(255, 255, 255); transform-origin: 415.221px 139.26px;" id="elpysb1evfp3s" class="animable"></path><path d="M416.26,142.33a1.37,1.37,0,0,1-1.34,1.25,1.15,1.15,0,0,1-1.17-1.25,1.37,1.37,0,0,1,1.34-1.26A1.16,1.16,0,0,1,416.26,142.33Z" style="fill: rgb(255, 255, 255); transform-origin: 415.005px 142.325px;" id="el1y1k4udxni7" class="animable"></path><path d="M416,145.38a1.37,1.37,0,0,1-1.34,1.25,1.15,1.15,0,0,1-1.16-1.25,1.37,1.37,0,0,1,1.34-1.25A1.15,1.15,0,0,1,416,145.38Z" style="fill: rgb(255, 255, 255); transform-origin: 414.75px 145.38px;" id="elgf5p9iknf4j" class="animable"></path><path d="M351.29,142.69h-6.35a.5.5,0,0,1,0-1h6.35a.5.5,0,0,1,0,1Z" style="fill: rgb(255, 255, 255); transform-origin: 348.115px 142.19px;" id="elus1fs4qwk" class="animable"></path><path d="M346.35,145.33a.52.52,0,0,1-.37-.16l-2.69-2.9,3.07-2.87a.5.5,0,0,1,.71,0,.5.5,0,0,1,0,.71l-2.34,2.19,2,2.16a.5.5,0,0,1,0,.71A.51.51,0,0,1,346.35,145.33Z" style="fill: rgb(255, 255, 255); transform-origin: 345.254px 142.291px;" id="el8xxda7bm8pa" class="animable"></path><polygon points="421.43 207.4 333.49 207.4 336.07 170.49 424.01 170.49 421.43 207.4" style="fill: rgb(23, 86, 122); transform-origin: 378.75px 188.945px;" id="elcxn2zmyn09n" class="animable"></polygon><polygon points="372.97 173.74 370.84 204.18 337.42 204.18 339.55 173.74 372.97 173.74" style="fill: rgb(255, 255, 255); transform-origin: 355.195px 188.96px;" id="elv7iwmt4ryzg" class="animable"></polygon><path d="M347.79,158.06c-.08,1.19-1.07,1.89-2.86,1.89h-3.48l.49-7h3.27c1.68,0,2.53.71,2.45,1.82a1.82,1.82,0,0,1-1,1.54A1.58,1.58,0,0,1,347.79,158.06Zm-1.3-.13c.05-.7-.45-1-1.43-1H343l-.14,2h2.1C345.89,158.94,346.45,158.63,346.49,157.93Zm-3.32-4-.14,1.93h1.84c.9,0,1.43-.32,1.47-1s-.44-1-1.34-1Z" style="fill: rgb(255, 255, 255); transform-origin: 344.628px 156.45px;" id="eltpb4pf5vj4" class="animable"></path><path d="M354.36,158.87l-.07,1.08h-5.24l.49-7h5.1l-.08,1.09h-3.8l-.13,1.82H354l-.07,1.07h-3.37l-.14,1.93Z" style="fill: rgb(255, 255, 255); transform-origin: 351.845px 156.45px;" id="elb9ec9866zv" class="animable"></path><path d="M359,153h1.3l-.42,5.9h3.66l-.08,1.09h-4.95Z" style="fill: rgb(255, 255, 255); transform-origin: 361.025px 156.495px;" id="elebmq3cvpuk" class="animable"></path><path d="M369.79,158.87l-.08,1.08h-5.24l.49-7h5.1l-.08,1.09h-3.8l-.13,1.82h3.38l-.08,1.07H366l-.14,1.93Z" style="fill: rgb(255, 255, 255); transform-origin: 367.265px 156.45px;" id="el835ee3stp7n" class="animable"></path><path d="M375.8,158.34h-3.49l-.8,1.61h-1.34l3.63-7h1.28l2.66,7h-1.35Zm-.36-1-1.1-3.06-1.52,3.06Z" style="fill: rgb(255, 255, 255); transform-origin: 373.955px 156.45px;" id="el60fqv5hb2zl" class="animable"></path><path d="M385.33,153l-.49,7h-1.07l-3.52-4.73-.33,4.73h-1.29l.49-7h1.07l3.52,4.74L384,153Z" style="fill: rgb(255, 255, 255); transform-origin: 381.98px 156.5px;" id="elpn83u062m7l" class="animable"></path><polygon points="418.52 249.05 330.58 249.05 333.16 212.14 421.1 212.14 418.52 249.05" style="fill: rgb(23, 86, 122); transform-origin: 375.84px 230.595px;" id="elk1q76mk19c" class="animable"></polygon><polygon points="370.07 215.28 367.94 245.72 334.52 245.72 336.65 215.28 370.07 215.28" style="fill: rgb(255, 255, 255); transform-origin: 352.295px 230.5px;" id="el3domhszplmx" class="animable"></polygon><path d="M349.45,222s-1.66.73-2.43.43-1.43-2.7-1.43-2.7l-.46-.68a.24.24,0,0,1,0-.31l.46-.55a.35.35,0,0,1,.26-.13h0a.3.3,0,0,1,.32.34l-.07.84s1.13,2,1.62,2a5.77,5.77,0,0,0,1.34-.37Z" style="fill: rgb(226, 148, 113); transform-origin: 347.262px 220.281px;" id="el9v4ov7smhb" class="animable"></path><path d="M351.12,220.71c0,.36-.72,1.29-2.83,1.63l-.08-1.22S351,219.43,351.12,220.71Z" style="fill: rgb(226, 148, 113); transform-origin: 349.665px 221.285px;" id="el4gqmt52rz4c" class="animable"></path><path d="M346.3,218.21a.53.53,0,0,0,.72.2.55.55,0,0,0,0-.75.53.53,0,0,0-.72-.21A.56.56,0,0,0,346.3,218.21Z" style="fill: rgb(23, 86, 122); transform-origin: 346.659px 217.931px;" id="eltl0jzvmu14" class="animable"></path><g id="eli1kkeet3hhq"><path d="M346.3,218.21a.63.63,0,0,1-.08-.65.57.57,0,0,1,.62.28.66.66,0,0,1,.12.61A.56.56,0,0,1,346.3,218.21Z" style="opacity: 0.2; transform-origin: 346.576px 218.013px;" class="animable"></path></g><path d="M344.87,219.28c.08.11.53-.08,1-.43s.79-.73.7-.85-.53.08-1,.43S344.78,219.16,344.87,219.28Z" style="fill: rgb(23, 86, 122); transform-origin: 345.72px 218.638px;" id="eluc787e3olvq" class="animable"></path><g id="el63mdivkwqs2"><path d="M345.43,219.13c-.28.16-.51.23-.56.15s.07-.29.31-.52l.14.14A1,1,0,0,1,345.43,219.13Z" style="opacity: 0.2; transform-origin: 345.144px 219.037px;" class="animable"></path></g><path d="M344.38,219.64a.54.54,0,0,0,.72.21.56.56,0,0,0,0-.76.52.52,0,0,0-.71-.21A.55.55,0,0,0,344.38,219.64Z" style="fill: rgb(23, 86, 122); transform-origin: 344.741px 219.364px;" id="el7rfht6n8ta4" class="animable"></path><g id="el4tw6u1in4o9"><path d="M350.48,221.53a3,3,0,0,1-1,.52c.12-1.44.82-1.45.82-1.45l.12.07Z" style="opacity: 0.2; isolation: isolate; transform-origin: 349.98px 221.325px;" class="animable"></path></g><path d="M351.83,232.72l-1,2.53a6.83,6.83,0,0,1-.15,2.14c-.27,1.2-1.75,7.53-1.75,7.53l-.79.09s.68-8.1,1-9.86.57-3,.57-3Z" style="fill: rgb(226, 148, 113); transform-origin: 349.985px 238.58px;" id="elm5462msf7zi" class="animable"></path><g id="el9fhbmjnuz84"><path d="M349.69,232.15l2.14.57-.64,1.63-1.88-.33C349.52,232.89,349.69,232.15,349.69,232.15Z" style="opacity: 0.1; transform-origin: 350.57px 233.25px;" class="animable"></path></g><path d="M353.15,230.73s.16,3.13.27,4.78c.14,2.06,1.85,5.25,3.52,9.18l.74-.25s-1.54-8.39-2.45-9.26l.11-5Z" style="fill: rgb(226, 148, 113); transform-origin: 355.415px 237.435px;" id="elns2b0y8rgbg" class="animable"></path><g id="elvhkdeob5ir"><path d="M355.52,232.28l.15,1.65-2,.36c-.22-1-.3-1.47-.3-1.47Z" style="opacity: 0.1; transform-origin: 354.52px 233.285px;" class="animable"></path></g><path d="M353.44,230a3.78,3.78,0,0,0-.87,1.05c-.17.41-1.88,8.64-2.37,11a.64.64,0,0,1-.73.5l-1-.18a.55.55,0,0,1-.44-.64c.35-2.22,1.67-10.63,2-12.1.36-1.7.61-2.7.6-2.85l4.07-.34S355.32,229.41,353.44,230Z" style="fill: rgb(38, 50, 56); transform-origin: 351.409px 234.499px;" id="eli26adde92i" class="animable"></path><g id="elj6xz52l282"><path d="M352.87,228.35l.56,1.69a3.57,3.57,0,0,0-.86,1l-.28.7a15.91,15.91,0,0,1,.12-3.59Z" style="opacity: 0.1; transform-origin: 352.835px 229.945px;" class="animable"></path></g><path d="M352.46,226.79s-.78,1.4.11,4.29c.12.41.08,1.51.65,4.25.37,1.76,1.66,5.21,1.86,6.15a.75.75,0,0,0,.91.58l.72-.14a.89.89,0,0,0,.71-1l-1.65-5.75-.29-4.46s.46-3-.4-4.16Z" style="fill: rgb(38, 50, 56); transform-origin: 354.786px 234.315px;" id="eljppei05gtw" class="animable"></path><path d="M348.17,244.83H349a.08.08,0,0,1,.07.05l.23.78a.12.12,0,0,1-.1.15h0c-.33,0-.63,0-1.05,0s-.38.06-1,.07c-.35,0-.39-.4-.24-.42a1.42,1.42,0,0,0,1-.53A.33.33,0,0,1,348.17,244.83Z" style="fill: rgb(23, 86, 122); transform-origin: 348.066px 245.355px;" id="el3x5vkewtpp2" class="animable"></path><path d="M356.88,244.52l.79-.25a.08.08,0,0,1,.09,0l.45.66a.12.12,0,0,1-.06.17h0l-1,.28c-.49.14-.35.16-.92.34-.34.1-.49-.26-.35-.33a1.41,1.41,0,0,0,.87-.8A.39.39,0,0,1,356.88,244.52Z" style="fill: rgb(23, 86, 122); transform-origin: 357.027px 244.997px;" id="eldb6g6qkk9z9" class="animable"></path><path d="M355.21,226.68s-.92.08-4.68.3c0,0-.14-1-.29-2.61-.17-1.88-.39-3.62.08-4.08s2.95-.46,4.05-.46a.64.64,0,0,1,.65.63Z" style="fill: rgb(23, 86, 122); transform-origin: 352.624px 223.405px;" id="elfh7mixycjmq" class="animable"></path><path d="M352,221.28s-.66-1-.44-1.37a14.89,14.89,0,0,1,1.66-.08C353.15,220,353,220.49,352,221.28Z" style="fill: rgb(226, 148, 113); transform-origin: 352.368px 220.555px;" id="elxctw26srecj" class="animable"></path><path d="M352,221l-.43-.84c.39-.25.32-.49.15-.85l.92-1.19c0,.59,0,1.44.51,1.72a.49.49,0,0,1-.07.28Z" style="fill: rgb(226, 148, 113); transform-origin: 352.36px 219.56px;" id="elm6asiro022" class="animable"></path><g id="el7y2i7n6dx4j"><path d="M351.78,219.6a1.83,1.83,0,0,0-.11-.29l.58-.75c.11,0,.29,0,.36.06a.41.41,0,0,0,0,.11A1.61,1.61,0,0,1,351.78,219.6Z" style="opacity: 0.2; isolation: isolate; transform-origin: 352.14px 219.08px;" class="animable"></path></g><path d="M353,217.12c0,.9,0,1.28-.46,1.78a1.13,1.13,0,0,1-2-.26c-.22-.79-.14-2.14.74-2.58a1.18,1.18,0,0,1,1.63.51A1.15,1.15,0,0,1,353,217.12Z" style="fill: rgb(226, 148, 113); transform-origin: 351.72px 217.653px;" id="elal97a0wy64d" class="animable"></path><path d="M353.31,217.78a.71.71,0,0,1-.32.4c-.2.12-.35,0-.33-.26s.15-.49.37-.52a.27.27,0,0,1,.3.26A.25.25,0,0,1,353.31,217.78Z" style="fill: rgb(226, 148, 113); transform-origin: 352.995px 217.812px;" id="elybp2k41cvb" class="animable"></path><g id="elcadmf2e7b54"><path d="M355,221.1l0,1.49a2.39,2.39,0,0,1-.85-1.51l.35-.08Z" style="opacity: 0.2; isolation: isolate; transform-origin: 354.575px 221.795px;" class="animable"></path></g><path d="M355.26,221.45a6.24,6.24,0,0,0,2.63-.24c.78-.44,1.3-2.9,1.3-2.9l.44-.94a.34.34,0,0,0-.11-.44l-.33-.21a.37.37,0,0,0-.23-.05l-.13,0a.39.39,0,0,0-.33.39v1.07s-.68,2-1.19,2a10.63,10.63,0,0,1-1.76,0Z" style="fill: rgb(226, 148, 113); transform-origin: 357.465px 219.082px;" id="elumx32asy02q" class="animable"></path><path d="M353.85,220.59c.13.38.36,1,2.54.9l.75-1.27S353.4,219.21,353.85,220.59Z" style="fill: rgb(226, 148, 113); transform-origin: 355.476px 220.682px;" id="ele6xd0otbgk" class="animable"></path><path d="M358.56,217c-.17.3-.48.47-.69.36s-.26-.44-.09-.75.48-.47.69-.36S358.73,216.64,358.56,217Z" style="fill: rgb(23, 86, 122); transform-origin: 358.17px 216.804px;" id="elmr5e73mdoan" class="animable"></path><g id="elw1d1xljmlrs"><path d="M358.56,217a.65.65,0,0,0,0-.66c-.18,0-.43.13-.59.41a.7.7,0,0,0-.07.63A.63.63,0,0,0,358.56,217Z" style="opacity: 0.2; transform-origin: 358.253px 216.863px;" class="animable"></path></g><path d="M360.07,217.69c-.08.14-.54,0-1-.2s-.84-.55-.77-.69.53,0,1,.21S360.14,217.56,360.07,217.69Z" style="fill: rgb(23, 86, 122); transform-origin: 359.185px 217.245px;" id="elvr5bhze568h" class="animable"></path><g id="elcvegu5mhu98"><path d="M359.5,217.68c.29.09.52.1.57,0s-.1-.26-.36-.44a.66.66,0,0,0-.12.17A.67.67,0,0,0,359.5,217.68Z" style="opacity: 0.2; transform-origin: 359.79px 217.496px;" class="animable"></path></g><path d="M360.57,218c-.17.3-.48.46-.69.36s-.25-.44-.08-.75.47-.47.69-.36S360.74,217.64,360.57,218Z" style="fill: rgb(23, 86, 122); transform-origin: 360.187px 217.803px;" id="eli84lizd5xzc" class="animable"></path><polygon points="415.61 290.7 327.67 290.7 330.25 253.79 418.19 253.79 415.61 290.7" style="fill: rgb(23, 86, 122); transform-origin: 372.93px 272.245px;" id="eljl5zmicl7l" class="animable"></polygon><polygon points="367.14 257.15 365.01 287.58 331.59 287.58 333.72 257.15 367.14 257.15" style="fill: rgb(255, 255, 255); transform-origin: 349.365px 272.365px;" id="elbuue7cprtzh" class="animable"></polygon><path d="M355.94,182.21c-1.33.12-3.18.7-3.15,1l-2.06,2.36-.61.22s1.46-3.07,1.81-3.58a16.86,16.86,0,0,1,3.65-1.48.86.86,0,0,1,1.05.44A.72.72,0,0,1,355.94,182.21Z" style="fill: rgb(226, 148, 113); transform-origin: 353.413px 183.237px;" id="el7pin8l31xtl" class="animable"></path><path d="M350.73,185.56l-.08.51a.62.62,0,0,1-.24.41l-.48.4a.17.17,0,0,1-.2,0l-.29-.27a.14.14,0,0,1,0-.19l.39-.54.46-.56S350.76,185.36,350.73,185.56Z" style="fill: rgb(226, 148, 113); transform-origin: 350.067px 186.116px;" id="elaqit86yc7bd" class="animable"></path><path d="M347.66,199.15l-2.7,1a9.77,9.77,0,0,1-.45-1l2.4-1.07Z" style="fill: rgb(226, 148, 113); transform-origin: 346.085px 199.115px;" id="el232ufp5dmso" class="animable"></path><path d="M345,200.43a.05.05,0,0,1,0,0h0s.39.28.42.48a.2.2,0,0,1,0,.11.13.13,0,0,1-.11.06c-.08,0-.16-.13-.22-.27S345.06,200.54,345,200.43Zm.4.4a1.15,1.15,0,0,0-.32-.34c.06.21.17.48.26.49s0,0,.06,0a.08.08,0,0,0,0-.07.11.11,0,0,0,0,0Z" style="fill: rgb(23, 86, 122); transform-origin: 345.214px 200.755px;" id="elyh3q3l6ib2" class="animable"></path><path d="M345,200.41l0,0a.77.77,0,0,1,.49,0,.19.19,0,0,1,.1.12.12.12,0,0,1,0,.13c-.12.08-.46-.06-.58-.16h0Zm.48,0a.66.66,0,0,0-.39,0c.13.09.4.18.46.12s0,0,0-.06h0A.13.13,0,0,0,345.52,200.4Z" style="fill: rgb(23, 86, 122); transform-origin: 345.305px 200.527px;" id="el47vysqzbtk7" class="animable"></path><path d="M345.17,200.16,345,200a.76.76,0,0,1-.24-.63l0-.28a.11.11,0,0,0-.12-.06l-1,.17c-.09,0-.14.24-.13.25.16.67.64,2.06.81,2.52s.66.3.63.1a3,3,0,0,1,.15-1.71A.33.33,0,0,0,345.17,200.16Z" style="fill: rgb(23, 86, 122); transform-origin: 344.339px 200.648px;" id="elkc5539f9zp" class="animable"></path><g id="elqb1prnpefcf"><g style="opacity: 0.2; transform-origin: 346.865px 198.895px;" class="animable"><path d="M346.07,198.54l.84-.38.75,1-1.23.47-.18-.23a.82.82,0,0,1-.17-.5Z" id="elkt6gn2sxat" class="animable" style="transform-origin: 346.865px 198.895px;"></path></g></g><path d="M351.45,189a2.71,2.71,0,0,0-.22.6c-.29,1.08-.84,4.73-1.12,6.12a.94.94,0,0,1-.55.63,11,11,0,0,0-3.09,1.87,10.67,10.67,0,0,1,.5,1.26,28.6,28.6,0,0,0,4.18-1.89c1.18-.91,2.86-5.71,3.34-7,.27-.7.59-1.54.22-2.15C354.51,188.18,352.32,187.14,351.45,189Z" style="fill: rgb(38, 50, 56); transform-origin: 350.674px 193.698px;" id="ele0etddhjor" class="animable"></path><path d="M356.3,180.92c.23.28.33.47.19,1.29-.25,1.6-.33,4.14-.42,4.53-.13.6-3.47.67-4,.13l-.87-4.89a1.27,1.27,0,0,1,1.07-1.44C352.5,180.5,355.6,180.07,356.3,180.92Z" style="fill: rgb(23, 86, 122); transform-origin: 353.87px 183.816px;" id="eldf3hajqaiu9" class="animable"></path><path d="M356.07,186.74h0a6,6,0,0,1-.05,1.64,3.57,3.57,0,0,0,.6,2.63h0s-4.31-.64-5.26-1.77l.67-2.37A16.2,16.2,0,0,0,356.07,186.74Z" style="fill: rgb(38, 50, 56); transform-origin: 353.99px 188.875px;" id="elqakhxk4yyrj" class="animable"></path><path d="M353.57,179.31l-.07-.06h0a2.17,2.17,0,0,1-.31-1c0-.12,0-.25,0-.39a1.16,1.16,0,0,1,.06-.58,1.51,1.51,0,0,1,.13-.29,7.86,7.86,0,0,1,.08,1.28A3.57,3.57,0,0,0,353.57,179.31Z" style="fill: rgb(38, 50, 56); transform-origin: 353.373px 178.15px;" id="el6uivpuz29os" class="animable"></path><path d="M353.7,178.81a2.56,2.56,0,0,1-.28,1.53.4.4,0,0,0,0,.44,2.88,2.88,0,0,0,1.24,1,1.45,1.45,0,0,0,.39-.71.48.48,0,0,0-.26-.5c-.38-.18-.32-.41-.17-.78Z" style="fill: rgb(226, 148, 113); transform-origin: 354.205px 180.295px;" id="elrphubv5nb" class="animable"></path><g id="el7uyyz9308wh"><path d="M354.05,179.2l.52.57c0,.1-.07.2-.1.3-.22,0-.54-.28-.55-.54A.79.79,0,0,1,354.05,179.2Z" style="opacity: 0.2; isolation: isolate; transform-origin: 354.245px 179.635px;" class="animable"></path></g><path d="M355.74,178.8a1.23,1.23,0,0,1-1.18,1h0a1.2,1.2,0,0,1-.6-.16.85.85,0,0,1-.19-.14l-.07-.06a1.2,1.2,0,0,1-.19-.21h0a2.17,2.17,0,0,1-.31-1c0-.12,0-.25,0-.39a1.16,1.16,0,0,1,.06-.58,1.51,1.51,0,0,1,.13-.29l.08-.11a1.28,1.28,0,0,1,1.37-.48,1.26,1.26,0,0,1,.82.87l.05.12A3.42,3.42,0,0,1,355.74,178.8Z" style="fill: rgb(226, 148, 113); transform-origin: 354.494px 178.068px;" id="el0goad1ydi4ne" class="animable"></path><path d="M352.94,178.55a.59.59,0,0,0,.35.34c.21.07.34-.13.31-.34s-.19-.47-.41-.45a.32.32,0,0,0-.28.33A.24.24,0,0,0,352.94,178.55Z" style="fill: rgb(226, 148, 113); transform-origin: 353.257px 178.502px;" id="elzwdxvmgmag" class="animable"></path><path d="M361.62,200.47l0,2.81c-.08.05-1.05.49-1.07.22-.06-.82-.17-2.54-.17-2.54Z" style="fill: rgb(226, 148, 113); transform-origin: 361px 202.029px;" id="elgyg50h4puxt" class="animable"></path><path d="M361.9,203.27a0,0,0,0,1,0,0s0,0,0,0,.41-.32.61-.3a.13.13,0,0,1,.09.05.11.11,0,0,1,0,.12c0,.08-.19.12-.34.15A2.22,2.22,0,0,1,361.9,203.27Zm.54-.29a1.37,1.37,0,0,0-.45.23c.22,0,.52-.06.57-.14s0,0,0-.06a.06.06,0,0,0-.06,0Z" style="fill: rgb(23, 86, 122); transform-origin: 362.259px 203.13px;" id="elx3tilo41ot" class="animable"></path><path d="M361.89,203.26a0,0,0,0,1,0,0,.84.84,0,0,1,.14-.48.22.22,0,0,1,.15-.06c.08,0,.1,0,.11.06s-.22.42-.36.51h0Zm.17-.47a.69.69,0,0,0-.12.39c.14-.11.32-.35.29-.42s0,0-.06,0h0A.16.16,0,0,0,362.06,202.79Z" style="fill: rgb(23, 86, 122); transform-origin: 362.09px 203.005px;" id="el2z0h4nzoxxm" class="animable"></path><path d="M361.7,203.08l-1.15.13a.09.09,0,0,0-.09.09l-.19,1c0,.1.18.18.19.18.7,0,2.21-.14,2.71-.21s.53-.56.33-.58a2.72,2.72,0,0,1-1.6-.53A.28.28,0,0,0,361.7,203.08Z" style="fill: rgb(23, 86, 122); transform-origin: 361.943px 203.78px;" id="ellzespd7a0j8" class="animable"></path><g id="eliopmj689wy"><g style="opacity: 0.2; transform-origin: 361.01px 201.14px;" class="animable"><polygon points="360.46 201.81 360.4 200.96 361.62 200.47 361.62 201.62 360.46 201.81" id="el2uetphmjriq" class="animable" style="transform-origin: 361.01px 201.14px;"></polygon></g></g><path d="M354,190c.52,1,3.25,3.51,4.51,5.62.34.57,1,4.53,1.8,5.65l1.41-.13c.58-1-.26-6.12-.26-6.12-.27-2.25-2.61-4.76-5.2-7.3a1.46,1.46,0,0,0-1.84-.14A2.51,2.51,0,0,0,354,190Z" style="fill: rgb(38, 50, 56); transform-origin: 357.89px 194.294px;" id="el18po9zec91u" class="animable"></path><path d="M351.45,181.18a.8.8,0,0,1,1.15-.15c1,1.29,2.06,2.48,2.06,2.48l3-.61.45.41a23.91,23.91,0,0,1-3.75,1.53c-.64,0-2.09-1.5-2.84-2.39A1.13,1.13,0,0,1,351.45,181.18Z" style="fill: rgb(226, 148, 113); transform-origin: 354.699px 182.846px;" id="el18z2r7pjp2b" class="animable"></path><path d="M357.65,182.9l.48-.21a.67.67,0,0,1,.46,0l.56.21a.14.14,0,0,1,.09.17l-.11.4a.16.16,0,0,1-.17.12l-.63,0-.69-.1S357.46,183,357.65,182.9Z" style="fill: rgb(226, 148, 113); transform-origin: 358.404px 183.12px;" id="elivua1qbpl6g" class="animable"></path><path d="M357.22,267.35l.85-.11a.58.58,0,0,1,.52.18l.25.28a.41.41,0,0,1,0,.53l0,.06a.45.45,0,0,1-.54.15l-.48-.22-.66,0Z" style="fill: rgb(221, 140, 106); transform-origin: 358.049px 267.854px;" id="el0ujsynp06pha" class="animable"></path><path d="M357.4,267.9c-.22.29-.27.3-.3.27l-.09,0-.2-.08-.38-.17-.76-.37-.72-.41a6.54,6.54,0,0,1-.69-.48l-.05,0-.12-.13L351.74,263a.84.84,0,0,1,.24-1.14.8.8,0,0,1,1.13.16l0,.07,1.92,3.69-.17-.17a6.45,6.45,0,0,1,.74.38c.24.14.47.29.7.45l.67.49.33.26.16.14.08.07s.05.05-.12.37A.18.18,0,0,1,357.4,267.9Z" style="fill: rgb(221, 140, 106); transform-origin: 354.58px 264.938px;" id="el5bu9qy8ioxf" class="animable"></path><path d="M352.12,261.55a19.73,19.73,0,0,0-3.69-.23c-.76.11-.52.79-.22,2.19.45,2.28.74,4.34.74,4.34l3.85,0s.81-4.37.32-5.57A1.21,1.21,0,0,0,352.12,261.55Z" style="fill: rgb(23, 86, 122); transform-origin: 350.6px 264.58px;" id="elkoocni71nnp" class="animable"></path><path d="M351.23,262.45c-1.23.06-2-.66-1.86-1.15.42,0,.6-.3.68-.71v0a2.35,2.35,0,0,0,0-.47l1,.64a.56.56,0,0,0-.05.08.89.89,0,0,0-.07.43l0,.06c.13.17.53.21.66.34S352.1,262.41,351.23,262.45Z" style="fill: rgb(221, 140, 106); transform-origin: 350.569px 261.287px;" id="elaot833zxlf9" class="animable"></path><path d="M350,258.74c0,.85,0,1.44.48,1.81.93.72,1.56.25,1.83-.61s.21-2.05-.61-2.38a1.24,1.24,0,0,0-1.58.66A1.2,1.2,0,0,0,350,258.74Z" style="fill: rgb(221, 140, 106); transform-origin: 351.227px 259.19px;" id="elux1h60ygcj8" class="animable"></path><path d="M349.49,259.55a.7.7,0,0,0,.44.4c.27.09.34-.14.29-.4s-.14-.58-.42-.55A.38.38,0,0,0,349.49,259.55Z" style="fill: rgb(221, 140, 106); transform-origin: 349.842px 259.484px;" id="eli6sl5cr2zej" class="animable"></path><path d="M343,267l-1.2.22a.65.65,0,0,0-.54.18l-.29.28a.42.42,0,0,0-.09.53l0,.06a.4.4,0,0,0,.52.15l.63-.06,1.35-.64Z" style="fill: rgb(221, 140, 106); transform-origin: 342.102px 267.731px;" id="eld6iites9sxh" class="animable"></path><polygon points="351.26 283.32 349.96 283.22 349.74 285.55 350.68 285.69 351.26 283.32" style="fill: rgb(221, 140, 106); transform-origin: 350.5px 284.455px;" id="elbj2i11mqkt8" class="animable"></polygon><g id="elyd9831i8vh"><g style="opacity: 0.2; isolation: isolate; transform-origin: 350.57px 283.67px;" class="animable"><polygon points="351.26 283.32 349.96 283.22 349.88 284.12 351.07 284.11 351.26 283.32" id="elqruaawkydx" class="animable" style="transform-origin: 350.57px 283.67px;"></polygon></g></g><path d="M352.7,278.68c-.21,1.07-1.31,5.1-1.31,5.1l-.24,0h0l-1.25.08h-.23s0-3.42.88-5c0-.09-.14-2-.18-4.26h0c0-1.39-.05-2.62-.08-3a5.52,5.52,0,0,1,.13-2.26,1,1,0,0,1,.45-.5l2.05-.18a10.2,10.2,0,0,1,.17,2.23A57.88,57.88,0,0,1,352.7,278.68Z" style="fill: rgb(38, 50, 56); transform-origin: 351.384px 276.26px;" id="elrj85m0owv8" class="animable"></path><g id="el1aaokbbpy1"><g style="opacity: 0.2; isolation: isolate; transform-origin: 350.482px 272.04px;" class="animable"><path d="M350.39,274.75a1,1,0,0,0,0-.16h0c0-1.39-.05-2.62-.08-3a5.52,5.52,0,0,1,.13-2.26l.21.54a.62.62,0,0,0,0,.09A17,17,0,0,1,350.39,274.75Z" id="eldh0wowemkci" class="animable" style="transform-origin: 350.482px 272.04px;"></path></g></g><path d="M351.31,285.61a.6.6,0,0,0-.3-.08h-.27a0,0,0,0,0,0,0l.18.11.07,0a.5.5,0,0,0,.29.06.11.11,0,0,0,.06-.09A.2.2,0,0,0,351.31,285.61Zm0,.13c-.07,0-.23,0-.37-.12l-.08-.05h.06a1.34,1.34,0,0,1,.35.05l0,0s0,0,0,0A.06.06,0,0,1,351.28,285.74Z" style="fill: rgb(23, 86, 122); transform-origin: 351.04px 285.635px;" id="el0gflorxtn6hi" class="animable"></path><path d="M351.2,285.3a.18.18,0,0,0-.13,0,.61.61,0,0,0-.26.18l-.07.08s0,0,0,0h0a.31.31,0,0,0,.13,0l.12,0c.11,0,.22-.08.24-.13S351.26,285.34,351.2,285.3Zm0,.08a.64.64,0,0,1-.35.14h-.05l0,0a.63.63,0,0,1,.24-.16h.1S351.21,285.38,351.21,285.38Z" style="fill: rgb(23, 86, 122); transform-origin: 350.993px 285.427px;" id="el91l9y4ljj0r" class="animable"></path><path d="M350.73,285.41l-1-.45a.12.12,0,0,0-.11,0l-.62.65a.13.13,0,0,0,0,.19l0,0c.34.15.66.28,1.09.48s.34.23.93.52c.36.17.66-.18.52-.27a1.29,1.29,0,0,1-.72-1A.33.33,0,0,0,350.73,285.41Z" style="fill: rgb(23, 86, 122); transform-origin: 350.267px 285.896px;" id="elu2x594ma1t" class="animable"></path><polygon points="346.33 283.27 345.03 282.8 344.45 284.41 345.11 285.64 346.33 283.27" style="fill: rgb(221, 140, 106); transform-origin: 345.39px 284.22px;" id="el94y8eiyuu" class="animable"></polygon><g id="elr4frjy8hbro"><g style="opacity: 0.2; isolation: isolate; transform-origin: 345.515px 283.465px;" class="animable"><polygon points="346.33 283.27 345.02 282.8 344.7 283.7 345.89 284.13 346.33 283.27" id="elaeh3xsqpqvr" class="animable" style="transform-origin: 345.515px 283.465px;"></polygon></g></g><path d="M351.47,268.81S349.22,278,348.89,279a42.14,42.14,0,0,1-2.6,4.81l-.19,0-1.3-.29h0s1.08-3.74,2.05-4.66c0-2.19.6-8.12,2-9.95Z" style="fill: rgb(38, 50, 56); transform-origin: 348.135px 276.31px;" id="el97p4t4wmuj" class="animable"></path><path d="M345.9,285.49a.53.53,0,0,0-.29-.15l-.15,0-.11,0h0s0,0,0,0h0a1.29,1.29,0,0,0,.16.17l.06.06c.1.08.22.15.3.13a.11.11,0,0,0,.07-.09A.18.18,0,0,0,345.9,285.49Zm-.07.14c-.07,0-.22-.09-.35-.21l-.07-.07h.07a1,1,0,0,1,.34.13l0,0a.07.07,0,0,1,0,.06S345.85,285.63,345.83,285.63Z" style="fill: rgb(23, 86, 122); transform-origin: 345.645px 285.522px;" id="elnx1v5fe8g5c" class="animable"></path><path d="M345.86,285.11a.19.19,0,0,0-.13-.05.59.59,0,0,0-.32.15l-.09.08s0,0,0,0h0l.13,0h.14a.46.46,0,0,0,.28-.11A.1.1,0,0,0,345.86,285.11Zm0,.09a.58.58,0,0,1-.39.09h-.06l0,0a.71.71,0,0,1,.29-.14.14.14,0,0,1,.09,0h0S345.85,285.2,345.85,285.2Z" style="fill: rgb(23, 86, 122); transform-origin: 345.596px 285.177px;" id="elf7y01vehenj" class="animable"></path><path d="M345.34,285.14l-.88-.73a.11.11,0,0,0-.12,0l-.8.62a.17.17,0,0,0,0,.23l0,0c.33.26.63.47,1,.79s.3.35.84.81c.33.27.73-.07.61-.21a1.54,1.54,0,0,1-.51-1.32A.33.33,0,0,0,345.34,285.14Z" style="fill: rgb(23, 86, 122); transform-origin: 344.753px 285.677px;" id="el7htv7harx4" class="animable"></path><path d="M341.38,268.21l-.46.16h-.09a.27.27,0,0,1-.27-.2.31.31,0,0,1,.21-.37l.48-.16A.63.63,0,0,1,341.38,268.21Z" style="fill: rgb(38, 50, 56); transform-origin: 340.976px 268.005px;" id="eltstla6agjc" class="animable"></path><path d="M340.67,268.27l-.06-.23s0-.06-.05-.06l-.52.08s0,.05,0,.11l.1.36c0,.05.05.08.08.07l.47-.25S340.68,268.31,340.67,268.27Z" style="fill: rgb(38, 50, 56); transform-origin: 340.365px 268.291px;" id="elvnmhtt6bhf" class="animable"></path><path d="M358.27,268.2l.44.15h.1a.32.32,0,0,0,.29-.2.28.28,0,0,0-.16-.37l-.46-.16A.75.75,0,0,0,358.27,268.2Z" style="fill: rgb(38, 50, 56); transform-origin: 358.695px 267.985px;" id="elbt93hfqov06" class="animable"></path><path d="M358.8,268.41a.22.22,0,0,1-.11,0l-.46-.16v0a.8.8,0,0,1,.23-.61l0,0,.49.17a.33.33,0,0,1,.19.44A.38.38,0,0,1,358.8,268.41Zm-.48-.25.41.14a.27.27,0,0,0,.32-.15.23.23,0,0,0-.13-.32l-.43-.14A.67.67,0,0,0,358.32,268.16Z" style="fill: rgb(38, 50, 56); transform-origin: 358.698px 268.029px;" id="el06ojwozph5tm" class="animable"></path><path d="M359,268.25l.09-.23s0-.06.05-.06l.51.08s0,0,0,.11l-.15.36c0,.05-.06.08-.09.07l-.44-.25S359,268.29,359,268.25Z" style="fill: rgb(38, 50, 56); transform-origin: 359.31px 268.271px;" id="elxdvf5lkji6a" class="animable"></path><path d="M359.43,268.63h0l-.44-.25c-.05,0,0-.08,0-.13l.1-.24c0-.05.05-.1.1-.09l.52.08a.07.07,0,0,1,.05,0,.15.15,0,0,1,0,.13l-.15.36a.2.2,0,0,1-.09.11Zm-.41-.34.41.24,0,0,.15-.36v0l-.48-.08s0,0,0,0l-.1.23Z" style="fill: rgb(38, 50, 56); transform-origin: 359.371px 268.274px;" id="elb5juab5452" class="animable"></path><path d="M349.38,287.59h-1.11a7.15,7.15,0,0,1-5.58-2.59c-2.27-2.73-2.86-7.16-2.95-10.39a38.1,38.1,0,0,1,.34-6.42,0,0,0,0,1,.06,0,0,0,0,0,1,0,.05c0,.11-1.72,11.54,2.59,16.73a7.06,7.06,0,0,0,5.51,2.56h1.11a7.47,7.47,0,0,0,5.55-2.35c4.95-5.08,4.62-16.82,4.62-16.94a0,0,0,0,1,.05-.05s.05,0,.05,0a41.36,41.36,0,0,1-.44,6.57c-.48,3.29-1.61,7.78-4.21,10.45A7.59,7.59,0,0,1,349.38,287.59Z" style="fill: rgb(38, 50, 56); transform-origin: 349.672px 277.89px;" id="el3e2te29y4xs" class="animable"></path><path d="M343,267.37c-.13-.33-.11-.37-.07-.38l.09-.07.18-.13.36-.26c.25-.17.49-.34.74-.49s.51-.31.77-.45a8.26,8.26,0,0,1,.79-.39l-.24.25,1.63-3.57a.87.87,0,0,1,1.09-.47.77.77,0,0,1,.39,1,.47.47,0,0,0,0,.1l-2.07,3.36a.85.85,0,0,1-.2.22l-.05,0a7.34,7.34,0,0,1-.75.48c-.25.15-.52.28-.78.41l-.81.37-.4.17-.21.09-.1,0s-.08,0-.27-.27Z" style="fill: rgb(221, 140, 106); transform-origin: 345.845px 264.485px;" id="elj6s6wtkdaug" class="animable"></path><polygon points="353.06 270.27 350.7 271.93 348.29 269.87 348.95 267.85 352.86 267.85 353.06 270.27" style="fill: rgb(38, 50, 56); transform-origin: 350.675px 269.89px;" id="el2h232vquq72" class="animable"></polygon><path d="M395.79,191.48l-.12,1.69H395l.11-1.6c0-.53-.19-.78-.61-.78a.83.83,0,0,0-.83.88l-.1,1.5h-.7l.12-1.6c0-.53-.19-.78-.61-.78a.83.83,0,0,0-.84.88l-.1,1.5h-.69l.2-2.95h.66l0,.37a1.32,1.32,0,0,1,1-.4,1,1,0,0,1,1,.49,1.46,1.46,0,0,1,1.14-.49C395.38,190.19,395.85,190.59,395.79,191.48Z" style="fill: rgb(255, 255, 255); transform-origin: 393.273px 191.675px;" id="eloeccqncsmbg" class="animable"></path><path d="M396.76,190.22h.69l-.21,2.95h-.69Zm0-.9a.45.45,0,0,1,.47-.42.38.38,0,0,1,.41.4.46.46,0,0,1-.47.43A.38.38,0,0,1,396.73,189.32Z" style="fill: rgb(255, 255, 255); transform-origin: 397.095px 191.034px;" id="elvnzatcj9gsr" class="animable"></path><path d="M401.18,191.48l-.12,1.69h-.69l.11-1.6c0-.53-.2-.78-.65-.78a.85.85,0,0,0-.88.89l-.11,1.49h-.69l.21-2.95H399l0,.38a1.39,1.39,0,0,1,1.05-.41A1.06,1.06,0,0,1,401.18,191.48Z" style="fill: rgb(255, 255, 255); transform-origin: 399.678px 191.678px;" id="elgjjar9f2qt" class="animable"></path><path d="M405,190.22l-.21,2.95h-.66l0-.38a1.31,1.31,0,0,1-1,.42A1.08,1.08,0,0,1,402,191.9l.11-1.68h.7l-.11,1.59c0,.54.2.79.63.79a.84.84,0,0,0,.87-.89l.11-1.49Z" style="fill: rgb(255, 255, 255); transform-origin: 403.487px 191.716px;" id="el3d7lhahdxia" class="animable"></path><path d="M407.5,193a1.19,1.19,0,0,1-.68.2.84.84,0,0,1-.95-1l.1-1.42h-.49l0-.55H406l0-.67h.7l-.05.67h.79l0,.55h-.79l-.1,1.41c0,.28.12.44.38.44a.7.7,0,0,0,.4-.12Z" style="fill: rgb(255, 255, 255); transform-origin: 406.49px 191.385px;" id="elu1ze3xf6dxn" class="animable"></path><path d="M410.81,191.91h-2.32a.82.82,0,0,0,.91.71,1.1,1.1,0,0,0,.82-.32l.35.43a1.64,1.64,0,0,1-1.23.48,1.39,1.39,0,0,1-1.53-1.52,1.6,1.6,0,0,1,1.64-1.5,1.33,1.33,0,0,1,1.39,1.52Zm-2.29-.45h1.67a.73.73,0,0,0-.78-.72A.87.87,0,0,0,408.52,191.46Z" style="fill: rgb(255, 255, 255); transform-origin: 409.329px 191.703px;" id="elyzn4i10urlp" class="animable"></path><path d="M411.08,192.88l.3-.53a1.91,1.91,0,0,0,1,.29c.44,0,.63-.12.64-.32,0-.57-1.82,0-1.74-1.21,0-.56.57-.92,1.37-.92a2.28,2.28,0,0,1,1.09.25l-.31.52a1.59,1.59,0,0,0-.83-.22c-.42,0-.63.14-.64.33,0,.6,1.82.07,1.74,1.23,0,.55-.57.91-1.4.91A2.28,2.28,0,0,1,411.08,192.88Z" style="fill: rgb(255, 255, 255); transform-origin: 412.41px 191.7px;" id="elf0k1lpri9x" class="animable"></path><path d="M382.76,188.63l-.27,3.86h-.72l.23-3.26h-.82l0-.6Z" style="fill: rgb(255, 255, 255); transform-origin: 381.97px 190.56px;" id="el51rxg1wvuc" class="animable"></path><path d="M383.39,190.56c.09-1.27.84-2,1.76-2s1.57.72,1.48,2-.84,2-1.76,2S383.3,191.83,383.39,190.56Zm2.52,0c.06-.93-.27-1.36-.81-1.36s-.92.43-1,1.36.27,1.37.79,1.37S385.84,191.49,385.91,190.56Z" style="fill: rgb(255, 255, 255); transform-origin: 385.01px 190.56px;" id="el19zb9f9xyczj" class="animable"></path><path d="M383.61,195.52a4.86,4.86,0,0,1-4.9-5.27,5.68,5.68,0,0,1,5.56-5.2,4.87,4.87,0,0,1,4.91,5.27h0A5.67,5.67,0,0,1,383.61,195.52Zm.66-9.47a4.65,4.65,0,0,0-4.56,4.27,3.85,3.85,0,0,0,3.9,4.2,4.65,4.65,0,0,0,4.57-4.27h0a3.86,3.86,0,0,0-3.91-4.2Z" style="fill: rgb(255, 255, 255); transform-origin: 383.945px 190.285px;" id="elq9ebfdvtdia" class="animable"></path><polygon points="385.27 184.85 383.77 184.85 383.28 182.72 386.05 182.72 385.27 184.85" style="fill: rgb(255, 255, 255); transform-origin: 384.665px 183.785px;" id="elq9c28aawp3b" class="animable"></polygon><polygon points="387.48 185.96 386.81 185.46 387.36 184.76 388.02 185.25 387.48 185.96" style="fill: rgb(255, 255, 255); transform-origin: 387.415px 185.36px;" id="eldr9im9gd9wh" class="animable"></polygon><polygon points="384.96 185.46 384 185.46 384.06 184.5 385.03 184.5 384.96 185.46" style="fill: rgb(255, 255, 255); transform-origin: 384.515px 184.98px;" id="elrlqfsl731jh" class="animable"></polygon><path d="M392.89,233l-.12,1.69h-.69l.11-1.6c0-.52-.19-.78-.61-.78s-.79.3-.83.89l-.11,1.49H390l.11-1.6c0-.52-.19-.78-.61-.78s-.79.3-.83.89l-.1,1.49h-.7l.21-3h.66l0,.38a1.35,1.35,0,0,1,1-.41,1,1,0,0,1,1,.49,1.52,1.52,0,0,1,1.15-.49C392.48,231.7,393,232.1,392.89,233Z" style="fill: rgb(255, 255, 255); transform-origin: 390.387px 233.17px;" id="elit59tv1ye2e" class="animable"></path><path d="M393.86,231.73h.69l-.21,3h-.69Zm0-.9a.46.46,0,0,1,.48-.41.38.38,0,0,1,.41.4.46.46,0,0,1-.47.43A.39.39,0,0,1,393.82,230.83Z" style="fill: rgb(255, 255, 255); transform-origin: 394.2px 232.574px;" id="eltwqutrj3hv8" class="animable"></path><path d="M398.28,233l-.12,1.69h-.69l.11-1.6c0-.52-.2-.78-.65-.78a.86.86,0,0,0-.89.89l-.1,1.49h-.69l.2-3h.66l0,.39a1.36,1.36,0,0,1,1-.42A1.07,1.07,0,0,1,398.28,233Z" style="fill: rgb(255, 255, 255); transform-origin: 396.783px 233.171px;" id="el59grfrmp9wl" class="animable"></path><path d="M402.11,231.73l-.21,3h-.66l0-.37a1.3,1.3,0,0,1-1,.41,1.08,1.08,0,0,1-1.19-1.3l.12-1.69h.69l-.11,1.6c0,.53.2.79.64.79a.84.84,0,0,0,.87-.89l.1-1.5Z" style="fill: rgb(255, 255, 255); transform-origin: 400.568px 233.254px;" id="ell1o36npe2as" class="animable"></path><path d="M404.59,234.52a1.1,1.1,0,0,1-.68.2.83.83,0,0,1-.94-1l.09-1.42h-.48l0-.55h.48l0-.68h.69l0,.68h.79l0,.55h-.79l-.1,1.4c0,.29.11.44.38.44a.6.6,0,0,0,.39-.12Z" style="fill: rgb(255, 255, 255); transform-origin: 403.585px 232.9px;" id="eluln26jdxcp" class="animable"></path><path d="M407.91,233.43h-2.32a.82.82,0,0,0,.91.71,1.14,1.14,0,0,0,.82-.32l.34.42a1.58,1.58,0,0,1-1.22.48,1.38,1.38,0,0,1-1.53-1.51,1.59,1.59,0,0,1,1.63-1.51,1.33,1.33,0,0,1,1.39,1.53A1.68,1.68,0,0,1,407.91,233.43Zm-2.3-.46h1.68a.74.74,0,0,0-.78-.72A.9.9,0,0,0,405.61,233Z" style="fill: rgb(255, 255, 255); transform-origin: 406.424px 233.213px;" id="el737zri5n3t4" class="animable"></path><path d="M408.17,234.39l.31-.52a1.88,1.88,0,0,0,1,.29c.43,0,.62-.12.64-.33,0-.56-1.83,0-1.74-1.21,0-.55.56-.92,1.36-.92a2.22,2.22,0,0,1,1.09.26l-.3.52a1.5,1.5,0,0,0-.83-.22c-.42,0-.63.14-.65.33,0,.6,1.83.07,1.75,1.22,0,.55-.58.91-1.41.91A2.25,2.25,0,0,1,408.17,234.39Z" style="fill: rgb(255, 255, 255); transform-origin: 409.5px 233.21px;" id="eluffxh9ozear" class="animable"></path><path d="M382.87,230.14l0,.48L381.1,234h-.77l1.68-3.26h-1.52l-.05.66h-.67l.09-1.27Z" style="fill: rgb(255, 255, 255); transform-origin: 381.32px 232.065px;" id="el3aq5cdfwcvi" class="animable"></path><path d="M380.71,237a4.88,4.88,0,0,1-3.61-1.54,4.94,4.94,0,0,1-1.3-3.73,5.68,5.68,0,0,1,5.57-5.2,4.86,4.86,0,0,1,4.9,5.27h0A5.66,5.66,0,0,1,380.71,237Zm.66-9.47a4.66,4.66,0,0,0-4.57,4.27,3.92,3.92,0,0,0,1,3,3.87,3.87,0,0,0,2.88,1.22,4.67,4.67,0,0,0,4.57-4.27h0a3.86,3.86,0,0,0-3.91-4.2Z" style="fill: rgb(255, 255, 255); transform-origin: 381.037px 231.765px;" id="elxsrqmy7l1j" class="animable"></path><polygon points="382.37 226.36 380.86 226.36 380.38 224.24 383.15 224.24 382.37 226.36" style="fill: rgb(255, 255, 255); transform-origin: 381.765px 225.3px;" id="elrdua9ewkmwt" class="animable"></polygon><polygon points="384.58 227.47 383.91 226.98 384.45 226.28 385.12 226.77 384.58 227.47" style="fill: rgb(255, 255, 255); transform-origin: 384.515px 226.875px;" id="elspulluo5trc" class="animable"></polygon><polygon points="382.06 226.98 381.1 226.98 381.16 226.01 382.12 226.01 382.06 226.98" style="fill: rgb(255, 255, 255); transform-origin: 381.61px 226.495px;" id="elkbzoamz2is" class="animable"></polygon><path d="M390,274.53l-.11,1.69h-.7l.12-1.6c0-.53-.19-.78-.61-.78a.83.83,0,0,0-.84.88l-.1,1.5h-.69l.11-1.6c0-.53-.19-.78-.61-.78s-.79.3-.83.88l-.11,1.5h-.69l.21-3h.65l0,.38a1.3,1.3,0,0,1,1-.41,1,1,0,0,1,1,.49,1.5,1.5,0,0,1,1.14-.49C389.58,273.24,390.05,273.64,390,274.53Z" style="fill: rgb(255, 255, 255); transform-origin: 387.472px 274.7px;" id="elxy1kfj876a" class="animable"></path><path d="M391,273.27h.69l-.2,3h-.7Zm0-.9a.46.46,0,0,1,.47-.41.38.38,0,0,1,.42.39.46.46,0,0,1-.48.43A.38.38,0,0,1,390.92,272.37Z" style="fill: rgb(255, 255, 255); transform-origin: 391.34px 274.114px;" id="elmzox0gz2m1o" class="animable"></path><path d="M395.37,274.53l-.11,1.69h-.7l.12-1.6c0-.53-.21-.78-.65-.78a.85.85,0,0,0-.89.89l-.1,1.49h-.7l.21-3h.66l0,.38a1.39,1.39,0,0,1,1.05-.41A1.06,1.06,0,0,1,395.37,274.53Z" style="fill: rgb(255, 255, 255); transform-origin: 393.874px 274.703px;" id="eltd0ndimemce" class="animable"></path><path d="M399.2,273.27l-.2,3h-.66l0-.37a1.3,1.3,0,0,1-1,.41,1.08,1.08,0,0,1-1.18-1.3l.12-1.69H397l-.11,1.59c0,.54.2.79.64.79a.85.85,0,0,0,.87-.89l.1-1.49Z" style="fill: rgb(255, 255, 255); transform-origin: 397.668px 274.794px;" id="el2l2n4hb5jqw" class="animable"></path><path d="M401.69,276.06a1.19,1.19,0,0,1-.68.2.84.84,0,0,1-.95-1l.1-1.42h-.49l0-.56h.49l.05-.67h.69l-.05.67h.79l0,.56h-.79l-.1,1.4c0,.29.12.44.38.44a.68.68,0,0,0,.4-.12Z" style="fill: rgb(255, 255, 255); transform-origin: 400.68px 274.44px;" id="elib9mpxs44m" class="animable"></path><path d="M405,275h-2.32a.83.83,0,0,0,.91.7,1.14,1.14,0,0,0,.83-.32l.34.43a1.64,1.64,0,0,1-1.23.48,1.38,1.38,0,0,1-1.52-1.51,1.59,1.59,0,0,1,1.63-1.51,1.33,1.33,0,0,1,1.39,1.52Zm-2.29-.46h1.68a.75.75,0,0,0-.79-.72A.89.89,0,0,0,402.71,274.51Z" style="fill: rgb(255, 255, 255); transform-origin: 403.524px 274.783px;" id="ely2w4252ukmb" class="animable"></path><path d="M405.27,275.93l.3-.53a1.91,1.91,0,0,0,1,.3c.44,0,.63-.13.64-.33,0-.56-1.82,0-1.74-1.21,0-.56.57-.92,1.37-.92a2.28,2.28,0,0,1,1.09.25l-.3.53a1.54,1.54,0,0,0-.84-.22c-.42,0-.63.13-.64.33,0,.59,1.82.06,1.74,1.22,0,.55-.57.91-1.4.91A2.22,2.22,0,0,1,405.27,275.93Z" style="fill: rgb(255, 255, 255); transform-origin: 406.6px 274.75px;" id="eljhtauv08nye" class="animable"></path><path d="M379.76,274.35a1.4,1.4,0,0,1-1.51,1.25c-1.05,0-1.63-.68-1.54-1.92a2,2,0,0,1,2-2.05,1.94,1.94,0,0,1,1,.24l-.31.55a1.23,1.23,0,0,0-.72-.19,1.25,1.25,0,0,0-1.29,1.33h0a1.42,1.42,0,0,1,1.07-.41A1.12,1.12,0,0,1,379.76,274.35Zm-.7,0c0-.4-.26-.65-.73-.65a.76.76,0,0,0-.83.66c0,.36.24.65.76.65A.73.73,0,0,0,379.06,274.38Z" style="fill: rgb(255, 255, 255); transform-origin: 378.232px 273.617px;" id="elo8mdi2c05cj" class="animable"></path><path d="M377.8,278.58a4.86,4.86,0,0,1-4.9-5.27,5.67,5.67,0,0,1,5.57-5.2,4.86,4.86,0,0,1,4.9,5.27h0A5.67,5.67,0,0,1,377.8,278.58Zm.67-9.47a4.65,4.65,0,0,0-4.57,4.27,3.86,3.86,0,0,0,3.9,4.2,4.65,4.65,0,0,0,4.57-4.27h0a3.85,3.85,0,0,0-3.9-4.2Z" style="fill: rgb(255, 255, 255); transform-origin: 378.135px 273.345px;" id="el4omop3z5day" class="animable"></path><polygon points="379.46 267.9 377.96 267.9 377.48 265.78 380.25 265.78 379.46 267.9" style="fill: rgb(255, 255, 255); transform-origin: 378.865px 266.84px;" id="elaod973t4bhr" class="animable"></polygon><polygon points="381.67 269.01 381.01 268.52 381.55 267.81 382.22 268.31 381.67 269.01" style="fill: rgb(255, 255, 255); transform-origin: 381.615px 268.41px;" id="elye7yv7iakm" class="animable"></polygon><polygon points="379.15 268.51 378.19 268.51 378.26 267.55 379.22 267.55 379.15 268.51" style="fill: rgb(255, 255, 255); transform-origin: 378.705px 268.03px;" id="elmzk5w1gfz7p" class="animable"></polygon><path d="M343.35,166.12c0,.55-.49.87-1.31.87h-1.59l.22-3.2h1.5c.77,0,1.15.33,1.12.84a.82.82,0,0,1-.46.7A.73.73,0,0,1,343.35,166.12Zm-.59-.06c0-.32-.21-.46-.66-.46h-1l-.06.93H342C342.48,166.53,342.73,166.38,342.76,166.06Zm-1.53-1.8-.06.88H342c.41,0,.66-.14.68-.44s-.21-.44-.62-.44Z" style="fill: rgb(255, 255, 255); transform-origin: 341.903px 165.39px;" id="elfb3u7q0iifp" class="animable"></path><path d="M346.36,166.49l0,.5h-2.39l.22-3.2h2.33l0,.5h-1.74l-.06.83h1.54l0,.49h-1.54l-.06.88Z" style="fill: rgb(255, 255, 255); transform-origin: 345.245px 165.39px;" id="el6jvukplkt45" class="animable"></path><path d="M349.27,165.36h.56l-.09,1.27a2.13,2.13,0,0,1-1.28.41,1.5,1.5,0,0,1-1.6-1.65,1.77,1.77,0,0,1,1.84-1.64,1.55,1.55,0,0,1,1.25.52l-.4.37a1.07,1.07,0,0,0-.86-.37,1.18,1.18,0,0,0-1.23,1.12,1,1,0,0,0,1.07,1.13,1.34,1.34,0,0,0,.67-.17Z" style="fill: rgb(255, 255, 255); transform-origin: 348.401px 165.396px;" id="elu5ie8kf6jap" class="animable"></path><path d="M350.73,163.79h.59l-.22,3.2h-.6Z" style="fill: rgb(255, 255, 255); transform-origin: 350.91px 165.39px;" id="elknr0e915mar" class="animable"></path><path d="M355,163.79l-.22,3.2h-.49l-1.61-2.16-.15,2.16H352l.22-3.2h.49l1.61,2.17.15-2.17Z" style="fill: rgb(255, 255, 255); transform-origin: 353.5px 165.39px;" id="elkq4ffoz5ghd" class="animable"></path><path d="M358.72,163.79l-.22,3.2H358l-1.61-2.16-.15,2.16h-.59l.23-3.2h.48L358,166l.15-2.17Z" style="fill: rgb(255, 255, 255); transform-origin: 357.185px 165.39px;" id="el4zvm5qwlnp9" class="animable"></path><path d="M361.79,166.49l0,.5h-2.4l.23-3.2h2.33l0,.5h-1.74l-.05.83h1.54l0,.49h-1.54l-.06.88Z" style="fill: rgb(255, 255, 255); transform-origin: 360.67px 165.39px;" id="eldmc13j2ko" class="animable"></path><path d="M364.51,167l-.58-.93h-.85L363,167h-.6l.23-3.2H364c.84,0,1.33.43,1.28,1.14a1.1,1.1,0,0,1-.75,1l.66,1.05Zm-.61-2.69h-.69l-.09,1.27h.69c.52,0,.81-.24.83-.64S364.42,164.3,363.9,164.3Z" style="fill: rgb(255, 255, 255); transform-origin: 363.842px 165.4px;" id="eluqlt9zk1aya" class="animable"></path><path d="M368.23,163.15h.52l-1.81,4.3h-.51Z" style="fill: rgb(255, 255, 255); transform-origin: 367.59px 165.3px;" id="elo1j4ducm21a" class="animable"></path><path d="M372.1,166.49l0,.5h-2.36l0-.4,1.35-1.2c.33-.3.4-.49.41-.66s-.16-.46-.56-.46a1,1,0,0,0-.77.33l-.39-.32a1.6,1.6,0,0,1,1.25-.53c.69,0,1.12.35,1.08.92a1.43,1.43,0,0,1-.6,1l-.91.81Z" style="fill: rgb(255, 255, 255); transform-origin: 370.926px 165.369px;" id="elyjw7xvum8ne" class="animable"></path><path d="M374.75,166c0,.54-.48,1-1.34,1a1.9,1.9,0,0,1-1.17-.37l.29-.46a1.39,1.39,0,0,0,.91.31c.42,0,.69-.19.71-.48s-.18-.48-.66-.48h-.29l0-.4.78-.87h-1.45l0-.5h2.17l0,.4-.84.92A.85.85,0,0,1,374.75,166Z" style="fill: rgb(255, 255, 255); transform-origin: 373.497px 165.375px;" id="eldzsogly2q6n" class="animable"></path><path d="M378.23,167l.15-2.12-1.17,1.76h-.27L376,164.9l-.14,2.09h-.57l.22-3.2H376l1.12,2.12,1.4-2.12H379l-.21,3.2Z" style="fill: rgb(255, 255, 255); transform-origin: 377.145px 165.395px;" id="elzuztrlep8yg" class="animable"></path><path d="M379.89,163.79h.59l-.22,3.2h-.6Z" style="fill: rgb(255, 255, 255); transform-origin: 380.07px 165.39px;" id="elzodc2rcrxa" class="animable"></path><path d="M384.18,163.79,384,167h-.49l-1.61-2.16-.15,2.16h-.59l.22-3.2h.49l1.61,2.17.15-2.17Z" style="fill: rgb(255, 255, 255); transform-origin: 382.67px 165.395px;" id="elpafkcd3bon" class="animable"></path></g><g id="freepik--screen-1--inject-103" class="animable" style="transform-origin: 285.35px 152.295px;"><path d="M335.07,72.06l-.23,3.26-11,157.21a11.49,11.49,0,0,1-11.28,10.54H245.43a9.7,9.7,0,0,1-9.8-10.54l11-157.21.23-3.26a11.49,11.49,0,0,1,11.27-10.54h17.46a2.08,2.08,0,0,1,2.11,2l0,.54a5.08,5.08,0,0,0,5.15,4.84h16.59a6,6,0,0,0,5.84-4.84l.11-.54a2.49,2.49,0,0,1,2.4-2h17.44A9.7,9.7,0,0,1,335.07,72.06Z" style="fill: rgb(38, 50, 56); transform-origin: 285.35px 152.295px;" id="elqdhvaq4by7" class="animable"></path><g id="el0yje3icm0pnb"><path d="M335.07,72.06l-.23,3.26-11,157.21a11.49,11.49,0,0,1-11.28,10.54H245.43a9.7,9.7,0,0,1-9.8-10.54l11-157.21.23-3.26a11.49,11.49,0,0,1,11.27-10.54h17.46a2.08,2.08,0,0,1,2.11,2l0,.54a5.08,5.08,0,0,0,5.15,4.84h16.59a6,6,0,0,0,5.84-4.84l.11-.54a2.49,2.49,0,0,1,2.4-2h17.44A9.7,9.7,0,0,1,335.07,72.06Z" style="fill: rgb(255, 255, 255); opacity: 0.2; transform-origin: 285.35px 152.295px;" class="animable"></path></g><polygon points="254.38 68.86 255.79 68.86 255.89 67.45 254.48 67.45 254.38 68.86" style="fill: rgb(255, 255, 255); transform-origin: 255.135px 68.155px;" id="el2mo6is78oqg" class="animable"></polygon><polygon points="257.3 67.45 257.2 68.86 258.62 68.86 258.72 67.45 258.81 66.04 257.4 66.04 257.3 67.45" style="fill: rgb(255, 255, 255); transform-origin: 258.005px 67.45px;" id="eln1okihx82ph" class="animable"></polygon><polygon points="260.32 64.63 260.23 66.04 260.13 67.45 260.03 68.86 261.44 68.86 261.54 67.45 261.64 66.04 261.74 64.63 260.32 64.63" style="fill: rgb(255, 255, 255); transform-origin: 260.885px 66.745px;" id="el6tx96axifot" class="animable"></polygon><path d="M321,64.72l-.08,1h-.69l-.14,2.07h.69l-.07,1H327l.29-4.15Zm2.54,3.11h-2.07l.14-2.07h2.08Z" style="fill: rgb(255, 255, 255); transform-origin: 323.69px 66.715px;" id="el4y06j6i4at9" class="animable"></path><path d="M325,75.89a1.37,1.37,0,0,1-1.34,1.26,1.15,1.15,0,0,1-1.17-1.26,1.37,1.37,0,0,1,1.34-1.25A1.15,1.15,0,0,1,325,75.89Z" style="fill: rgb(255, 255, 255); transform-origin: 323.745px 75.895px;" id="elxa0jz0b1kof" class="animable"></path><path d="M324.83,79a1.38,1.38,0,0,1-1.35,1.26A1.16,1.16,0,0,1,322.32,79a1.36,1.36,0,0,1,1.34-1.25A1.16,1.16,0,0,1,324.83,79Z" style="fill: rgb(255, 255, 255); transform-origin: 323.575px 79.005px;" id="elk6sa7ogno9" class="animable"></path><path d="M324.61,82a1.37,1.37,0,0,1-1.34,1.25A1.16,1.16,0,0,1,322.1,82a1.37,1.37,0,0,1,1.34-1.26A1.15,1.15,0,0,1,324.61,82Z" style="fill: rgb(255, 255, 255); transform-origin: 323.356px 81.9949px;" id="elbssqksxwu1" class="animable"></path><path d="M259.65,79.33h-6.37a.51.51,0,0,1,0-1h6.37a.51.51,0,1,1,0,1Z" style="fill: rgb(255, 255, 255); transform-origin: 256.565px 78.83px;" id="elnje1r0puqi" class="animable"></path><path d="M254.7,82a.49.49,0,0,1-.37-.16l-2.7-2.9L254.71,76a.5.5,0,1,1,.69.73L253.05,79l2,2.17a.5.5,0,0,1-.37.84Z" style="fill: rgb(255, 255, 255); transform-origin: 253.594px 78.936px;" id="eldanostx0se" class="animable"></path><polygon points="328.25 169.52 240.03 169.52 241.76 144.84 329.98 144.84 328.25 169.52" style="fill: rgb(23, 86, 122); transform-origin: 285.005px 157.18px;" id="elfw7h4aeg4ks" class="animable"></polygon><g id="elvwcw5bzqf9s"><polygon points="328.23 169.81 240.01 169.81 241.74 145.13 329.96 145.13 328.23 169.81" style="fill: rgb(255, 255, 255); opacity: 0.1; transform-origin: 284.985px 157.47px;" class="animable"></polygon></g><path d="M265.15,88.14a2.52,2.52,0,0,1,2.59-2.33,2.1,2.1,0,0,1,1.74.76l-.58.51a1.46,1.46,0,0,0-1.17-.53A1.68,1.68,0,0,0,266,88.14a1.43,1.43,0,0,0,1.51,1.59,1.72,1.72,0,0,0,1.25-.54l.5.52a2.45,2.45,0,0,1-1.85.76A2.13,2.13,0,0,1,265.15,88.14Z" style="fill: rgb(255, 255, 255); transform-origin: 267.31px 88.1406px;" id="elj2ddaygkmg" class="animable"></path><path d="M274.36,85.87l-.31,4.53h-.84l.13-1.94H271l-.14,1.94H270l.32-4.53h.84l-.13,1.87h2.34l.13-1.87Z" style="fill: rgb(255, 255, 255); transform-origin: 272.18px 88.135px;" id="elugrwqhqbfxi" class="animable"></path><path d="M275.1,88.14a2.52,2.52,0,0,1,2.6-2.33A2.13,2.13,0,0,1,280,88.14a2.53,2.53,0,0,1-2.6,2.33A2.14,2.14,0,0,1,275.1,88.14Zm4,0a1.42,1.42,0,0,0-1.48-1.59,1.67,1.67,0,0,0-1.7,1.59,1.42,1.42,0,0,0,1.48,1.59A1.68,1.68,0,0,0,279.13,88.14Z" style="fill: rgb(255, 255, 255); transform-origin: 277.551px 88.1395px;" id="elyxtix729g5g" class="animable"></path><path d="M280.55,88.14a2.52,2.52,0,0,1,2.6-2.33,2.14,2.14,0,0,1,2.28,2.33,2.53,2.53,0,0,1-2.61,2.33A2.13,2.13,0,0,1,280.55,88.14Zm4,0a1.42,1.42,0,0,0-1.48-1.59,1.67,1.67,0,0,0-1.7,1.59,1.42,1.42,0,0,0,1.48,1.59A1.68,1.68,0,0,0,284.58,88.14Z" style="fill: rgb(255, 255, 255); transform-origin: 282.99px 88.14px;" id="elqpx8e77muwc" class="animable"></path><path d="M285.81,89.92l.34-.65a2.35,2.35,0,0,0,1.46.5c.71,0,1-.25,1-.59.07-1-2.66-.34-2.55-2,.06-.73.68-1.35,1.92-1.35a2.68,2.68,0,0,1,1.48.4l-.31.65a2.37,2.37,0,0,0-1.22-.35c-.7,0-1,.27-1,.61-.07,1,2.66.34,2.55,2-.05.73-.69,1.35-1.93,1.35A2.75,2.75,0,0,1,285.81,89.92Z" style="fill: rgb(255, 255, 255); transform-origin: 287.647px 88.1599px;" id="elkwbd8uyr7y" class="animable"></path><path d="M293.68,89.7l-.05.7h-3.4l.32-4.53h3.3l-.05.71h-2.46l-.08,1.18h2.18l0,.69h-2.19l-.09,1.25Z" style="fill: rgb(255, 255, 255); transform-origin: 292.04px 88.135px;" id="elcr2kxbumh59" class="animable"></path><path d="M299.61,88.09h.79l-.12,1.8a3.08,3.08,0,0,1-1.82.58,2.13,2.13,0,0,1-2.27-2.33,2.52,2.52,0,0,1,2.61-2.33,2.17,2.17,0,0,1,1.77.74l-.57.51a1.57,1.57,0,0,0-1.21-.51A1.68,1.68,0,0,0,297,88.14a1.43,1.43,0,0,0,1.52,1.59,2,2,0,0,0,.95-.23Z" style="fill: rgb(255, 255, 255); transform-origin: 298.375px 88.1406px;" id="ellzdtgakq6x" class="animable"></path><path d="M301.18,88.14a2.53,2.53,0,0,1,2.6-2.33,2.13,2.13,0,0,1,2.28,2.33,2.52,2.52,0,0,1-2.6,2.33A2.14,2.14,0,0,1,301.18,88.14Zm4,0a1.41,1.41,0,0,0-1.48-1.59,1.68,1.68,0,0,0-1.7,1.59,1.43,1.43,0,0,0,1.48,1.59A1.68,1.68,0,0,0,305.21,88.14Z" style="fill: rgb(255, 255, 255); transform-origin: 303.621px 88.1396px;" id="elvrl6uh23d8s" class="animable"></path><path d="M309.74,89.35h-2.26L307,90.4h-.87l2.36-4.53h.82L311,90.4h-.88Zm-.23-.66-.72-2-1,2Z" style="fill: rgb(255, 255, 255); transform-origin: 308.565px 88.135px;" id="ell3t5mb8sff" class="animable"></path><path d="M311.9,85.87h.84l-.27,3.82h2.37l0,.71h-3.21Z" style="fill: rgb(255, 255, 255); transform-origin: 313.235px 88.135px;" id="el9antfcpnmqs" class="animable"></path><path d="M267.5,159.54c-.07,1-.86,1.52-2.31,1.52H262.4l.39-5.62h2.63c1.35,0,2,.57,2,1.46a1.47,1.47,0,0,1-.81,1.24A1.28,1.28,0,0,1,267.5,159.54Zm-1.05-.11c0-.56-.37-.81-1.15-.81h-1.69l-.11,1.62h1.68C266,160.24,266.41,160,266.45,159.43Zm-2.67-3.17-.11,1.55h1.48c.72,0,1.14-.26,1.18-.77s-.35-.78-1.08-.78Z" style="fill: rgb(255, 255, 255); transform-origin: 264.956px 158.25px;" id="elpn0yagx15p" class="animable"></path><path d="M272.79,160.19l-.07.87h-4.21l.39-5.62H273l-.07.87h-3.05l-.11,1.47h2.72l-.06.86h-2.72l-.11,1.55Z" style="fill: rgb(255, 255, 255); transform-origin: 270.755px 158.25px;" id="elz3gi1kraej" class="animable"></path><path d="M276.5,155.44h1.05l-.34,4.74h2.94l-.06.88h-4Z" style="fill: rgb(255, 255, 255); transform-origin: 278.12px 158.25px;" id="el3da6r277lfn" class="animable"></path><path d="M285.2,160.19l-.06.87h-4.22l.39-5.62h4.11l-.06.87H282.3l-.11,1.47h2.72l-.06.86h-2.72l-.1,1.55Z" style="fill: rgb(255, 255, 255); transform-origin: 283.17px 158.25px;" id="elh5jgzu67is9" class="animable"></path><path d="M290,159.76h-2.81l-.65,1.3h-1.07l2.92-5.62h1l2.14,5.62h-1.09Zm-.29-.82-.89-2.46-1.22,2.46Z" style="fill: rgb(255, 255, 255); transform-origin: 288.5px 158.25px;" id="elkq2j5eit2x" class="animable"></path><path d="M297.71,155.44l-.4,5.62h-.86l-2.83-3.81-.26,3.81h-1l.39-5.62h.86l2.84,3.81.26-3.81Z" style="fill: rgb(255, 255, 255); transform-origin: 295.035px 158.25px;" id="elwcaspa4638j" class="animable"></path><polygon points="318.34 157.65 323.63 157.65 320.66 153.09 315.37 153.09 318.34 157.65" style="fill: rgb(38, 50, 56); transform-origin: 319.5px 155.37px;" id="elk6i95f84x2" class="animable"></polygon><polygon points="320.02 162.25 314.73 162.25 318.34 157.69 323.63 157.69 320.02 162.25" style="fill: rgb(38, 50, 56); transform-origin: 319.18px 159.97px;" id="elosoam9qrlfp" class="animable"></polygon><polygon points="326.2 198.79 237.99 198.79 239.71 174.11 327.93 174.11 326.2 198.79" style="fill: rgb(38, 50, 56); transform-origin: 282.96px 186.45px;" id="elxcdj6ryhaa" class="animable"></polygon><g id="eloltfexpq5x"><polygon points="326.2 198.79 237.99 198.79 239.71 174.11 327.93 174.11 326.2 198.79" style="fill: rgb(255, 255, 255); opacity: 0.4; transform-origin: 282.96px 186.45px;" class="animable"></polygon></g><path d="M253.51,187.87c-.07,1-.86,1.52-2.31,1.52h-2.79l.39-5.62h2.64c1.34,0,2,.57,2,1.46a1.47,1.47,0,0,1-.8,1.24A1.28,1.28,0,0,1,253.51,187.87Zm-1-.11c0-.56-.36-.81-1.15-.81h-1.69l-.11,1.62h1.69C252,188.57,252.43,188.32,252.46,187.76Zm-2.67-3.17-.11,1.55h1.48c.72,0,1.15-.26,1.18-.77s-.35-.78-1.07-.78Z" style="fill: rgb(255, 255, 255); transform-origin: 250.967px 186.58px;" id="eliodolc4vjzn" class="animable"></path><path d="M258.8,188.52l-.06.87h-4.22l.4-5.62H259l-.06.87H255.9l-.1,1.47h2.71l-.06.86h-2.71l-.11,1.55Z" style="fill: rgb(255, 255, 255); transform-origin: 256.76px 186.58px;" id="el7r7jjucp0ok" class="animable"></path><path d="M261.69,188.8l.42-.81a2.92,2.92,0,0,0,1.81.62c.87,0,1.26-.32,1.29-.74.09-1.21-3.31-.41-3.16-2.5.06-.91.84-1.68,2.38-1.68a3.31,3.31,0,0,1,1.84.5l-.39.81a2.92,2.92,0,0,0-1.52-.44c-.86,0-1.24.33-1.27.76-.08,1.2,3.3.42,3.16,2.48-.07.9-.85,1.67-2.39,1.67A3.42,3.42,0,0,1,261.69,188.8Z" style="fill: rgb(255, 255, 255); transform-origin: 263.98px 186.581px;" id="els20a1q7ev6b" class="animable"></path><path d="M268.57,184.65H266.7l.07-.88h4.76l-.06.88h-1.86l-.33,4.74h-1Z" style="fill: rgb(255, 255, 255); transform-origin: 269.115px 186.58px;" id="elshupyprmibl" class="animable"></path><path d="M275.61,189.39l-1-1.64h-1.48l-.12,1.64h-1l.39-5.62h2.32c1.47,0,2.34.75,2.25,2a2,2,0,0,1-1.32,1.77l1.16,1.85Zm-1.08-4.74h-1.22l-.16,2.24h1.22c.91,0,1.42-.41,1.47-1.12S275.44,184.65,274.53,184.65Z" style="fill: rgb(255, 255, 255); transform-origin: 274.493px 186.58px;" id="elr31jt4a44ym" class="animable"></path><path d="M277.6,186.58a3.14,3.14,0,0,1,3.23-2.89,2.64,2.64,0,0,1,2.82,2.89,3.13,3.13,0,0,1-3.23,2.89A2.65,2.65,0,0,1,277.6,186.58Zm5,0a1.77,1.77,0,0,0-1.84-2,2.08,2.08,0,0,0-2.11,2,1.77,1.77,0,0,0,1.84,2A2.08,2.08,0,0,0,282.6,186.58Z" style="fill: rgb(255, 255, 255); transform-origin: 280.626px 186.58px;" id="eliiqcosdqqc" class="animable"></path><path d="M290,183.77l-.39,5.62h-.86l-2.83-3.81-.27,3.81h-1l.39-5.62h.86l2.83,3.81.27-3.81Z" style="fill: rgb(255, 255, 255); transform-origin: 287.325px 186.58px;" id="elj7rvjmm5hcn" class="animable"></path><path d="M295.11,186.52h1l-.16,2.24a3.79,3.79,0,0,1-2.25.71,2.64,2.64,0,0,1-2.82-2.89,3.12,3.12,0,0,1,3.24-2.89,2.73,2.73,0,0,1,2.2.91l-.71.65a1.92,1.92,0,0,0-1.5-.65,2.09,2.09,0,0,0-2.18,2,1.79,1.79,0,0,0,1.89,2,2.4,2.4,0,0,0,1.18-.29Z" style="fill: rgb(255, 255, 255); transform-origin: 293.594px 186.581px;" id="elpqjy484a44" class="animable"></path><polygon points="316.33 186.43 321.62 186.43 318.65 181.87 313.36 181.87 316.33 186.43" style="fill: rgb(255, 255, 255); transform-origin: 317.49px 184.15px;" id="els0ca4542n2" class="animable"></polygon><polygon points="318.01 191.03 312.72 191.03 316.33 186.47 321.62 186.47 318.01 191.03" style="fill: rgb(255, 255, 255); transform-origin: 317.17px 188.75px;" id="elz66d44fjza" class="animable"></polygon><polygon points="324.18 227.77 235.96 227.77 237.69 203.09 325.9 203.09 324.18 227.77" style="fill: rgb(38, 50, 56); transform-origin: 280.93px 215.43px;" id="elupovef3c2g" class="animable"></polygon><g id="elm3bg34jh5f"><polygon points="324.18 227.77 235.96 227.77 237.69 203.09 325.9 203.09 324.18 227.77" style="fill: rgb(255, 255, 255); opacity: 0.4; transform-origin: 280.93px 215.43px;" class="animable"></polygon></g><path d="M258,216.22c-.07,1-.86,1.53-2.3,1.53h-2.8l.4-5.62h2.63c1.35,0,2,.57,2,1.46a1.48,1.48,0,0,1-.81,1.24A1.26,1.26,0,0,1,258,216.22Zm-1-.1c0-.56-.37-.81-1.16-.81h-1.68l-.12,1.62h1.69C256.49,216.93,256.93,216.68,257,216.12ZM254.29,213l-.11,1.55h1.48c.72,0,1.15-.26,1.19-.77s-.36-.78-1.08-.78Z" style="fill: rgb(255, 255, 255); transform-origin: 255.457px 214.94px;" id="elay07xrzfntm" class="animable"></path><path d="M263.3,216.88l-.06.87H259l.39-5.62h4.1l-.06.87H260.4l-.1,1.46H263l-.06.86h-2.71l-.11,1.56Z" style="fill: rgb(255, 255, 255); transform-origin: 261.245px 214.94px;" id="elc59gnxew2x" class="animable"></path><path d="M268.1,213h-1.87l.07-.88h4.76L271,213h-1.86l-.33,4.74h-1.05Z" style="fill: rgb(255, 255, 255); transform-origin: 268.645px 214.93px;" id="elkjutz5w3fwg" class="animable"></path><path d="M271.18,214.94a3.13,3.13,0,0,1,3.22-2.9,2.66,2.66,0,0,1,2.83,2.9,3.13,3.13,0,0,1-3.23,2.89A2.65,2.65,0,0,1,271.18,214.94Zm5,0a1.77,1.77,0,0,0-1.84-2,2.08,2.08,0,0,0-2.11,2,1.76,1.76,0,0,0,1.83,2A2.09,2.09,0,0,0,276.18,214.94Z" style="fill: rgb(255, 255, 255); transform-origin: 274.205px 214.935px;" id="el2a6zieknzn3" class="animable"></path><path d="M283.53,212.13l-.39,5.62h-.86l-2.83-3.81-.27,3.81h-1l.39-5.62h.86l2.83,3.81.27-3.81Z" style="fill: rgb(255, 255, 255); transform-origin: 280.855px 214.94px;" id="el1uz67pdtla2" class="animable"></path><path d="M288.93,216.88l-.06.87h-4.22l.4-5.62h4.1l-.06.87H286l-.1,1.46h2.71l-.06.86h-2.72l-.1,1.56Z" style="fill: rgb(255, 255, 255); transform-origin: 286.9px 214.94px;" id="elfkrbyupaggp" class="animable"></path><path d="M290.43,212.13h2.45a2.57,2.57,0,0,1,2.87,2.81,3,3,0,0,1-3.26,2.81H290Zm2.07,4.74a2,2,0,0,0,2.2-1.93,1.73,1.73,0,0,0-1.93-1.93h-1.36l-.27,3.86Z" style="fill: rgb(255, 255, 255); transform-origin: 292.882px 214.936px;" id="elchvzgleew0m" class="animable"></path><polygon points="314.35 214.7 319.64 214.7 316.67 210.14 311.38 210.14 314.35 214.7" style="fill: rgb(255, 255, 255); transform-origin: 315.51px 212.42px;" id="elfky40sz3ysk" class="animable"></polygon><polygon points="316.03 219.3 310.74 219.3 314.35 214.75 319.64 214.75 316.03 219.3" style="fill: rgb(255, 255, 255); transform-origin: 315.19px 217.025px;" id="elwsw34fikjxh" class="animable"></polygon><polygon points="327.76 93.88 324.34 142.82 248.3 142.82 251.73 93.88 327.76 93.88" style="fill: rgb(255, 255, 255); transform-origin: 288.03px 118.35px;" id="elf9ox8cv3pji" class="animable"></polygon><polygon points="269.57 111.26 271.31 111.48 271.35 111.3 269.6 111.08 269.57 111.26" style="fill: rgb(23, 86, 122); transform-origin: 270.46px 111.28px;" id="el38uwj2t97fb" class="animable"></polygon><polygon points="272.65 111.66 277.16 112.25 277.19 112.06 272.69 111.48 272.65 111.66" style="fill: rgb(23, 86, 122); transform-origin: 274.92px 111.865px;" id="elqnzasa5fux" class="animable"></polygon><polygon points="262.64 126.01 264.38 126.24 264.42 126.06 262.67 125.83 262.64 126.01" style="fill: rgb(23, 86, 122); transform-origin: 263.53px 126.035px;" id="el93yaylr8zdc" class="animable"></polygon><polygon points="265.72 126.42 277.58 127.95 277.62 127.77 265.75 126.23 265.72 126.42" style="fill: rgb(23, 86, 122); transform-origin: 271.67px 127.09px;" id="elt6k7h3oz538" class="animable"></polygon><polygon points="281.56 106.67 275.76 105.91 275.79 105.73 281.6 106.49 281.56 106.67" style="fill: rgb(23, 86, 122); transform-origin: 278.68px 106.2px;" id="elcup33pakj69" class="animable"></polygon><polygon points="274.77 105.78 274.02 105.69 274.06 105.5 274.8 105.6 274.77 105.78" style="fill: rgb(23, 86, 122); transform-origin: 274.41px 105.64px;" id="el1tblsvu6ki4" class="animable"></polygon><path d="M291.5,114.53c-3.44-.14-8.39.75-8.44,1.54L277,121.54l-1.63.37s4.77-7.55,5.86-8.75c.77-.84,6.73-2,9.87-2.66a2.22,2.22,0,0,1,2.55,1.51A1.9,1.9,0,0,1,291.5,114.53Z" style="fill: rgb(226, 148, 113); transform-origin: 284.568px 116.184px;" id="el9x856imy17c" class="animable"></path><path d="M277,121.54l-.37,1.32a1.76,1.76,0,0,1-.75,1l-1.39.89a.37.37,0,0,1-.49-.06l-.67-.79a.38.38,0,0,1,0-.51l1.18-1.26,1.37-1.32S277.13,121,277,121.54Z" style="fill: rgb(226, 148, 113); transform-origin: 275.121px 122.813px;" id="ela3qtwo5cs7r" class="animable"></path><path d="M285,136l-.11.19a.54.54,0,0,1-.05.11c-.67,1.25-1.95,3.79-3.48,6.53h-7.83c1.21-4,2.6-8.66,3.33-10.45a6.4,6.4,0,0,1,.46-1v0c.08-.14.18-.29.29-.49a5.37,5.37,0,0,1,1.54-1.65l.32-.2a4.91,4.91,0,0,1,4-.19l.23.08.44.18.23.12.26.13.16.09a1.37,1.37,0,0,1,.2.13,3.42,3.42,0,0,1,1.18,1.06C286.94,132.28,286,134.28,285,136Z" style="fill: rgb(38, 50, 56); transform-origin: 279.991px 135.672px;" id="el0qhpbs3no7i" class="animable"></path><path d="M292.86,111.26c.49.81.69,1.34.07,3.45-1.2,4.09-2.26,10.72-2.61,11.72-.53,1.52-9.15.59-10.43-1l-.59-13.08a3.33,3.33,0,0,1,3.23-3.41C283.25,108.9,291.35,108.81,292.86,111.26Z" style="fill: rgb(23, 86, 122); transform-origin: 286.308px 118.065px;" id="elzeo864rfpis" class="animable"></path><path d="M290.32,126.43h0a16.84,16.84,0,0,1-.68,4.27,9.61,9.61,0,0,0,.65,7.08h0s-10.87-3.11-12.94-6.38l2.54-6A40.13,40.13,0,0,0,290.32,126.43Z" style="fill: rgb(38, 50, 56); transform-origin: 283.835px 131.59px;" id="elkbl7gy7hci" class="animable"></path><path d="M286.39,106.14l-.15-.17h0a5.65,5.65,0,0,1-.44-2.81c0-.32,0-.67,0-1.05a3.47,3.47,0,0,1,.35-1.5,3.59,3.59,0,0,1,.44-.7,20.1,20.1,0,0,1-.23,3.37A9.85,9.85,0,0,0,286.39,106.14Z" style="fill: rgb(38, 50, 56); transform-origin: 286.182px 103.025px;" id="el6l4auwujork" class="animable"></path><path d="M286.89,104.87c-.11,1.26-.37,3-1.23,3.92a1.07,1.07,0,0,0-.26,1.14,7.72,7.72,0,0,0,2.86,3,3.91,3.91,0,0,0,1.25-1.73,1.25,1.25,0,0,0-.51-1.39c-.9-.6-.68-1.19-.18-2.09Z" style="fill: rgb(226, 148, 113); transform-origin: 287.447px 108.9px;" id="elrjol2htggk" class="animable"></path><g id="elgpzhv0war5f"><path d="M287.68,106l1.12,1.68a5,5,0,0,0-.34.74c-.55-.21-1.31-.91-1.25-1.58A2.12,2.12,0,0,1,287.68,106Z" style="opacity: 0.2; isolation: isolate; transform-origin: 288.003px 107.21px;" class="animable"></path></g><path d="M292.13,105.52a3.19,3.19,0,0,1-3.37,2.29h0a3,3,0,0,1-1.5-.62,3.45,3.45,0,0,1-.44-.42c-.05-.06-.11-.12-.15-.18a4.07,4.07,0,0,1-.41-.61h0a5.65,5.65,0,0,1-.44-2.81c0-.32,0-.67,0-1.05a3.47,3.47,0,0,1,.35-1.5,3.59,3.59,0,0,1,.44-.7l.25-.27a3.3,3.3,0,0,1,3.66-.81,3.36,3.36,0,0,1,1.84,2.55c0,.12,0,.23.06.35A8.69,8.69,0,0,1,292.13,105.52Z" style="fill: rgb(226, 148, 113); transform-origin: 289.151px 103.211px;" id="el2rhzkkxnaf" class="animable"></path><path d="M286.83,104c-.13.12-.31-.62-.46-.68a2.85,2.85,0,0,0-.58-.12c0-.32,0-.67,0-1.05a3.47,3.47,0,0,1,.35-1.5,3.59,3.59,0,0,1,.44-.7c0-.06,0-.12,0-.19h0l.26-.08a1.07,1.07,0,0,1,.59,0,.88.88,0,0,1,.55.66C286.87,101.73,287.21,103.59,286.83,104Z" style="fill: rgb(38, 50, 56); transform-origin: 286.885px 101.826px;" id="el02bva8o7bp6b" class="animable"></path><path d="M286.23,106a5.94,5.94,0,0,1-1.48-3.11,4.05,4.05,0,0,1,1.68-3.52c.09-.06.2,0,.29,0s-.16.1-.15.18,0,.11,0,.16,0,.13,0,.19a3.59,3.59,0,0,0-.44.7,3.47,3.47,0,0,0-.35,1.5c0,.38,0,.73,0,1.05A5.65,5.65,0,0,0,286.23,106Z" style="fill: rgb(38, 50, 56); transform-origin: 285.742px 102.672px;" id="el03ueu21zrv5m" class="animable"></path><path d="M285,104a1.57,1.57,0,0,0,.79,1c.52.26.93-.21.91-.79s-.32-1.27-.9-1.3a.85.85,0,0,0-.84.77A.91.91,0,0,0,285,104Z" style="fill: rgb(226, 148, 113); transform-origin: 285.83px 103.992px;" id="el9c72ha364y" class="animable"></path><path d="M299.52,142.82H289.19c-1.62-2.46-3.26-4.77-4.31-6.53l-.28-.47a10,10,0,0,1-.76-1.6,4.59,4.59,0,0,1-.15-2.2c0-.2.07-.38.12-.58h0a8.24,8.24,0,0,1,.88-2.08c.15-.25.29-.47.43-.66a5.06,5.06,0,0,1,.36-.44s0,0,0,0l.11-.1a.28.28,0,0,1,.1-.08l0,0,.07,0,.3-.1.35-.11a3.67,3.67,0,0,1,3.61.89,3.49,3.49,0,0,1,.32.35C294.11,133.79,297.54,138.49,299.52,142.82Z" style="fill: rgb(38, 50, 56); transform-origin: 291.57px 135.269px;" id="elo3od39730z" class="animable"></path><path d="M280.3,110.33a2,2,0,0,1,3,0c2.06,3.68,4.46,7.17,4.46,7.17l7.88-.6,1,1.24s-8.61,2.93-10.15,2.73-4.86-4.61-6.48-7.2A3,3,0,0,1,280.3,110.33Z" style="fill: rgb(226, 148, 113); transform-origin: 288.137px 115.266px;" id="el6raizw42xte" class="animable"></path><path d="M295.66,116.9l1.32-.38a1.58,1.58,0,0,1,1.19.11l1.37.74a.36.36,0,0,1,.15.47l-.41,1a.42.42,0,0,1-.47.25l-1.6-.34-1.74-.5S295.16,117.05,295.66,116.9Z" style="fill: rgb(226, 148, 113); transform-origin: 297.55px 117.775px;" id="elr4o1p0h8c7" class="animable"></path><polygon points="296.06 118.71 295.44 119.03 294.91 116.9 295.55 116.7 296.06 118.71" style="fill: rgb(38, 50, 56); transform-origin: 295.485px 117.865px;" id="elj2dxlrrqjl" class="animable"></polygon><path d="M296,116.8l-1.43.45-.05-.18a.26.26,0,0,1,.18-.3l1-.31a.23.23,0,0,1,.29.16Z" style="fill: rgb(38, 50, 56); transform-origin: 295.257px 116.85px;" id="el80te9q57bl" class="animable"></path><path d="M285.27,101.81a3.52,3.52,0,0,1,2.42-1.62c1-.21,1.95-.19,2.92-.37a1.86,1.86,0,0,0,1.58-1,1.23,1.23,0,0,0-.28-1.1A3.47,3.47,0,0,0,291,97a1.64,1.64,0,0,0-.83-.3.65.65,0,0,0-.64.55,2.46,2.46,0,0,0-2.69-.14c-.56.31-1,1-.76,1.56a1.21,1.21,0,0,0-1.43.26,1,1,0,0,0,0,1.29,1.1,1.1,0,0,0-1.24,1.15C283.57,102,285,102.41,285.27,101.81Z" style="fill: rgb(38, 50, 56); transform-origin: 287.815px 99.4014px;" id="elrcts1onpin" class="animable"></path></g><g id="freepik--Character--inject-103" class="animable" style="transform-origin: 149.157px 265.593px;"><path d="M202.49,334.33c2-22.2,3.81-75.85-4.21-85.33l-42.76,1S169,315.44,176,336.23c6.93,20.56,27.39,68.14,27.39,68.14l11.56-.21S209.3,350.19,202.49,334.33Z" style="fill: rgb(255, 181, 115); transform-origin: 185.235px 326.685px;" id="elsfmspnlfex" class="animable"></path><path d="M198.44,404.42c-1.29-.08-2.52-.34-2.86-.94a.87.87,0,0,1,.09-1,1.16,1.16,0,0,1,.8-.5c1.69-.34,5.05,1.89,5.19,2a.26.26,0,0,1,.1.26.25.25,0,0,1-.2.19A17.12,17.12,0,0,1,198.44,404.42ZM197,402.36a2.43,2.43,0,0,0-.47,0,.71.71,0,0,0-.48.3c-.19.29-.14.43-.09.53.42.68,3,.86,4.82.73a10.81,10.81,0,0,0-3.79-1.57Z" style="fill: rgb(23, 86, 122); transform-origin: 198.614px 403.221px;" id="el7t2mp9nyjf2" class="animable"></path><path d="M201.48,404.37l-.1,0c-1.17-.62-3.41-2.95-3.14-4.06a.87.87,0,0,1,.93-.61,1.71,1.71,0,0,1,1.3.43c1.21,1.14,1.28,3.84,1.29,4a.23.23,0,0,1-.07.23Zm-2.15-4.23-.14-.05c-.42,0-.46.18-.48.24-.21.64,1.36,2.47,2.54,3.31a5.49,5.49,0,0,0-1.11-3.17A1.18,1.18,0,0,0,199.33,400.14Z" style="fill: rgb(23, 86, 122); transform-origin: 199.993px 402.031px;" id="el2jeg6vwhl0v" class="animable"></path><path d="M203.23,402.63l11.92.07a.87.87,0,0,1,.83.71l1.76,8.07c.13.82-1.44,1.73-1.53,1.73-6,.47-20.93.61-25.14.46s-4.6-4.34-2.87-4.66c7.79-1.4,10.79-3.63,13.33-5.75A2.44,2.44,0,0,1,203.23,402.63Z" style="fill: rgb(38, 50, 56); transform-origin: 202.491px 408.178px;" id="elzgavrzd7hfj" class="animable"></path><path d="M167.21,295.91c-2.26,8.28-4.93,16.54-7.38,24-2.59,7.91-4.94,15-6.33,20.35-1.33,24.65-10,63.68-10,63.68l-11.86.46s-2.78-41.95-4.72-66.89c-1.59-20.47,1.82-85.79,1.82-85.79l40.72-3.8C175.38,258.49,172.31,277.26,167.21,295.91Z" style="fill: rgb(255, 181, 115); transform-origin: 149.597px 326.16px;" id="elgq2q6v82mzs" class="animable"></path><g id="elzajlofdaayq"><path d="M167.21,295.91c-2.26,8.28-4.93,16.54-7.38,24-.88-19.39,1.45-44.31,1.45-44.31C161.4,278.84,164.83,288.15,167.21,295.91Z" style="opacity: 0.2; transform-origin: 163.421px 297.755px;" class="animable"></path></g><path d="M128.4,251.56l-5.55,40.78h0a49.72,49.72,0,0,0,26.38,9l14.07.62.78-51.92Z" style="fill: rgb(38, 50, 56); transform-origin: 143.465px 276px;" id="el8zxxnn33khf" class="animable"></path><g id="ela7iuxi73eir"><path d="M128.4,251.56l-5.55,40.78h0a49.72,49.72,0,0,0,26.38,9l14.07.62.78-51.92Z" style="opacity: 0.2; transform-origin: 143.465px 276px;" class="animable"></path></g><path d="M207.2,290.7a14.27,14.27,0,0,1-5.43,6.07l0,0a29.16,29.16,0,0,1-5,2.63l-.06,0c-13.91,5.75-35.6,5.28-35.6,5.28L156,250l34.31.15,6.25,0,4.2,0C207.88,264.55,207.2,290.7,207.2,290.7Z" style="fill: rgb(38, 50, 56); transform-origin: 181.609px 277.345px;" id="elrkao7hnkut" class="animable"></path><path d="M196.2,300.25l-.06-.8-6.38-49.81,7.27,0L202.3,297l-.27.19Zm-5.3-49.61,6.15,48,4.19-2.18-5.11-45.83Z" style="fill: rgb(23, 86, 122); transform-origin: 196.03px 274.945px;" id="elhrz4gkoaxd" class="animable"></path><path d="M126.46,403.43c-1.29-.14-2.5-.45-2.82-1.07a.89.89,0,0,1,.13-1,1.18,1.18,0,0,1,.82-.46c1.71-.27,5,2.11,5.11,2.21a.25.25,0,0,1,.09.26.28.28,0,0,1-.21.18A18.05,18.05,0,0,1,126.46,403.43Zm-1.36-2.12a1.77,1.77,0,0,0-.46,0,.67.67,0,0,0-.49.28c-.21.27-.16.42-.12.51.39.7,2.92,1,4.79.95a10.72,10.72,0,0,0-3.72-1.73Z" style="fill: rgb(23, 86, 122); transform-origin: 126.67px 402.225px;" id="elah2gk4iz6j" class="animable"></path><path d="M129.5,403.5l-.1,0c-1.14-.68-3.28-3.1-3-4.2a.87.87,0,0,1,1-.57,1.75,1.75,0,0,1,1.28.48c1.15,1.2,1.11,3.9,1.12,4a.24.24,0,0,1-.09.22Zm-2-4.32-.14-.05c-.42,0-.46.16-.48.22-.24.63,1.24,2.53,2.39,3.42a5.5,5.5,0,0,0-1-3.22A1.2,1.2,0,0,0,127.53,399.18Z" style="fill: rgb(23, 86, 122); transform-origin: 128.088px 401.106px;" id="elrbj5ndhwf4" class="animable"></path><path d="M131.32,401.84l12.45.58a.86.86,0,0,1,.79.76l1.42,8.13a1.86,1.86,0,0,1,0,.84,1.34,1.34,0,0,1-1.22.84c-6.42.17-22-.32-26.1-.64s-4.41-4.54-2.67-4.78c7.84-1.07,10.94-3.16,13.57-5.17A2.45,2.45,0,0,1,131.32,401.84Z" style="fill: rgb(38, 50, 56); transform-origin: 130.508px 407.429px;" id="elgt0zzhxvqlf" class="animable"></path><path d="M150.24,183.65c-1.19,2.89-2.53,5.67-3.92,8.45s-2.85,5.5-4.38,8.2-3.11,5.4-4.76,8.07-3.34,5.3-5.32,8.12l-.6.85a9,9,0,0,1-3.23,2.79,11.73,11.73,0,0,1-2.22.85,9.23,9.23,0,0,1-1,.21l-.52.08-.43,0a12,12,0,0,1-2.89-.15,13.1,13.1,0,0,1-3.2-1,17.44,17.44,0,0,1-3.27-2,32.55,32.55,0,0,1-3.94-3.67,66.58,66.58,0,0,1-5.75-7.25,86,86,0,0,1-4.69-7.55,71.93,71.93,0,0,1-3.87-8.05,3.47,3.47,0,0,1,4.94-4.29l.09.05c2.53,1.45,4.9,3.08,7.27,4.64l6.89,4.73c2.23,1.56,4.46,3.07,6.51,4.35a21.91,21.91,0,0,0,2.75,1.46c.34.13.63.17.42,0a2.93,2.93,0,0,0-1.17-.42,6.75,6.75,0,0,0-1.84-.11l-.31,0-.38.05a6.41,6.41,0,0,0-.76.16,7.85,7.85,0,0,0-1.73.66l-3.83,3.64,3.63-8q1.88-4.14,3.86-8.27t4.1-8.21c1.43-2.7,2.89-5.41,4.48-8l0,0a10.73,10.73,0,0,1,19.07,9.69Z" style="fill: rgb(255, 181, 115); transform-origin: 123.527px 195.111px;" id="elygk57mgm1l" class="animable"></path><path d="M99.91,184.45l-2.14-4.4-11.29,4.51a39.19,39.19,0,0,0,5.92,5.74,4.83,4.83,0,0,0,5.16.39l.44-.23A4.55,4.55,0,0,0,99.91,184.45Z" style="fill: rgb(255, 181, 115); transform-origin: 93.4294px 185.654px;" id="el5rw3tcuohqq" class="animable"></path><polygon points="90.51 172.85 83.58 181.15 86.47 184.57 97.75 180.06 90.51 172.85" style="fill: rgb(181, 91, 82); transform-origin: 90.665px 178.71px;" id="eljbgt1tdjle" class="animable"></polygon><polygon points="78.73 188.56 90.71 188.26 87.84 162.67 75.85 162.97 78.73 188.56" style="fill: rgb(23, 86, 122); transform-origin: 83.28px 175.615px;" id="elgg655pnvtgg" class="animable"></polygon><path d="M73.63,161.62l3.21,28.63a1.38,1.38,0,0,0,1.39,1.2l.71,0a1.35,1.35,0,0,1-1.38-1.2L74.34,161.6a1.36,1.36,0,0,1,1.31-1.51l-.7,0A1.35,1.35,0,0,0,73.63,161.62Z" style="fill: rgb(23, 86, 122); transform-origin: 76.279px 175.77px;" id="elvroqkyl51ye" class="animable"></path><g id="el6w8r6x9smxx"><path d="M73.63,161.62l3.21,28.63a1.38,1.38,0,0,0,1.39,1.2l.71,0a1.35,1.35,0,0,1-1.38-1.2L74.34,161.6a1.36,1.36,0,0,1,1.31-1.51l-.7,0A1.35,1.35,0,0,0,73.63,161.62Z" style="opacity: 0.3; transform-origin: 76.279px 175.77px;" class="animable"></path></g><path d="M74.34,161.6l3.22,28.63a1.35,1.35,0,0,0,1.38,1.2l12-.29a1.36,1.36,0,0,0,1.31-1.51L89,161a1.34,1.34,0,0,0-1.37-1.2l-12,.29A1.36,1.36,0,0,0,74.34,161.6ZM75.85,163l12-.3,2.87,25.59-12,.3Z" style="fill: rgb(23, 86, 122); transform-origin: 83.2949px 175.615px;" id="el7zl4r73ml0b" class="animable"></path><polygon points="75.85 162.97 78.73 188.56 90.71 188.26 87.84 162.67 75.85 162.97" style="fill: rgb(38, 50, 56); transform-origin: 83.28px 175.615px;" id="elelyialt72vg" class="animable"></polygon><g id="elu33jwkcalsm"><polygon points="75.85 162.97 78.73 188.56 90.71 188.26 87.84 162.67 75.85 162.97" style="fill: rgb(255, 255, 255); opacity: 0.7; transform-origin: 83.28px 175.615px;" class="animable"></polygon></g><path d="M93.28,175.61l-2.12-3.22a.49.49,0,0,0-.85,0l-.55,1a2.31,2.31,0,0,0-.1,2l2.89,6.91,5.2-2.29Z" style="fill: rgb(255, 181, 115); transform-origin: 93.6146px 177.222px;" id="eluvy01k8jh7" class="animable"></path><path d="M150,171.45c3.25,15.46-7.39,31.41-7.39,31.41-5.8,1.26-18-7.46-20.78-13.26,0,0,2.47-11,9.17-18.2C137.21,164.7,148.1,162.39,150,171.45Z" style="fill: rgb(23, 86, 122); transform-origin: 136.224px 184.234px;" id="elz8z5w2g7ik" class="animable"></path><g id="elxhqf0m9p3i"><g style="opacity: 0.1; transform-origin: 136.224px 184.234px;" class="animable"><path d="M150,171.45c3.25,15.46-7.39,31.41-7.39,31.41-5.8,1.26-18-7.46-20.78-13.26,0,0,2.47-11,9.17-18.2C137.21,164.7,148.1,162.39,150,171.45Z" id="elz7gk2h5ah1" class="animable" style="transform-origin: 136.224px 184.234px;"></path></g></g><path d="M148.35,164.24c11.91-2.42,31-5.69,43.66-5.14,7.89.34,10.09,4.71,10.69,20.74.34,9.22-2.3,28.46-2.08,37.46.57,22.7.8,34.26.8,34.26s-9.22-3.6-73,0c-2.49-44.32,1.18-69.07,6.41-77.81S143.66,165.19,148.35,164.24Z" style="fill: rgb(23, 86, 122); transform-origin: 165.176px 205.299px;" id="ells4np1hjnkg" class="animable"></path><path d="M152.46,165.53c1.41-1.67,3.11-.94,3.65-3.3a8,8,0,0,0-1.37-5.19l17.5-11.74c.29,6.83.54,12.22,3.81,14.63,1.36,5-7.54,10.93-20.13,12.22C147.92,173,150.44,167.94,152.46,165.53Z" style="fill: rgb(255, 181, 115); transform-origin: 163.306px 158.773px;" id="el8rx8gujk0i9" class="animable"></path><g id="elgn9vjh8bxma"><path d="M155.07,157.59l14.22-5.05c-3.12,6.15-9.45,10-13.15,8.9A7.91,7.91,0,0,0,155.07,157.59Z" style="opacity: 0.2; transform-origin: 162.18px 157.084px;" class="animable"></path></g><path d="M157.89,123.78c9.44-3.07,18.54,4.13,17.52,13.05s-1.92,14.94-7.68,18.5c-11.43,7.07-17.84,1.93-19.7-7.1C146.36,140.1,148.31,126.89,157.89,123.78Z" style="fill: rgb(255, 181, 115); transform-origin: 161.491px 140.85px;" id="elkdae1dixdmj" class="animable"></path><path d="M172.56,151.06s.28-6.89-3.27-8.17c-2.68-1,1.29-7-2-7.73-1.42-.45-1.45-5.16-1.45-6.28,0,0,5.58-2.22,9.43-2.46v0a36.07,36.07,0,0,1-.63,17.52Q173.69,147,172.56,151.06Z" style="fill: rgb(38, 50, 56); transform-origin: 170.949px 138.74px;" id="elgmpxoh6ostm" class="animable"></path><path d="M177.64,144.42a7.94,7.94,0,0,1-4.89,3.62c-2.73.65-4-1.81-3.18-4.33.74-2.27,3.05-5.33,5.75-4.87A3.62,3.62,0,0,1,177.64,144.42Z" style="fill: rgb(255, 181, 115); transform-origin: 173.791px 143.47px;" id="ellhuinje33dc" class="animable"></path><path d="M153.67,141l-.11,5.87s-2.39.42-3.69-1C153.62,143.68,153.67,141,153.67,141Z" style="fill: rgb(237, 137, 62); transform-origin: 151.77px 143.964px;" id="el6rayf2oi5dl" class="animable"></path><path d="M161.28,135.45a.44.44,0,0,0,.16-.17.46.46,0,0,0-.2-.62,4.62,4.62,0,0,0-4.21-.13.47.47,0,0,0-.18.63.46.46,0,0,0,.63.17h0a3.72,3.72,0,0,1,3.34.14A.45.45,0,0,0,161.28,135.45Z" style="fill: rgb(38, 50, 56); transform-origin: 159.142px 134.804px;" id="elvmrctaz2xhq" class="animable"></path><path d="M147.64,137.06a.45.45,0,0,0,.43-.07,3.62,3.62,0,0,1,3.23-.74.44.44,0,0,0,.57-.29.46.46,0,0,0-.29-.58,4.53,4.53,0,0,0-4.09.88.47.47,0,0,0-.07.65A.54.54,0,0,0,147.64,137.06Z" style="fill: rgb(38, 50, 56); transform-origin: 149.607px 136.152px;" id="el9d6slc5jf94" class="animable"></path><path d="M180.19,230.57c-3.54,2.85-8.09,3.09-10.16.52s-.87-7,2.68-9.81,8.09-3.09,10.16-.53S183.74,227.71,180.19,230.57Z" style="fill: rgb(38, 50, 56); transform-origin: 176.45px 225.931px;" id="elvip32j5otz" class="animable"></path><g id="elprz8gx6rm9p"><path d="M180.19,230.57c-3.54,2.85-8.09,3.09-10.16.52s-.87-7,2.68-9.81,8.09-3.09,10.16-.53S183.74,227.71,180.19,230.57Z" style="fill: rgb(255, 255, 255); opacity: 0.7; transform-origin: 176.45px 225.931px;" class="animable"></path></g><g id="el19zmaq18mdt"><path d="M180.19,230.57c2.83-2.28,4.13-5.52,3.51-8-1.88-1.63-5.8-.92-9.12,1.74-2.79,2.26-4.29,5.22-4,7.41C172.86,233.59,176.94,233.19,180.19,230.57Z" style="opacity: 0.2; transform-origin: 177.198px 227.29px;" class="animable"></path></g><path d="M194.73,248.61c-1.53,1.23-6.64-2.59-11.42-8.52s-7.42-11.74-5.89-13,6.63,2.59,11.41,8.52S196.25,247.38,194.73,248.61Z" style="fill: rgb(38, 50, 56); transform-origin: 186.073px 237.846px;" id="elou3bdypuhs" class="animable"></path><g id="elj1o45h8vmag"><path d="M194.73,248.61c-1.53,1.23-6.64-2.59-11.42-8.52s-7.42-11.74-5.89-13,6.63,2.59,11.41,8.52S196.25,247.38,194.73,248.61Z" style="fill: rgb(255, 255, 255); opacity: 0.7; transform-origin: 186.073px 237.846px;" class="animable"></path></g><g id="elqdf1i0vsj9"><path d="M187.92,245.08c3.1,2.88,5.78,4.36,6.81,3.53s.12-3.87-2.13-7.61a10.93,10.93,0,0,0-2.32,1.43A10.82,10.82,0,0,0,187.92,245.08Z" style="opacity: 0.2; transform-origin: 191.536px 244.92px;" class="animable"></path></g><path d="M199.61,254.67c-3.55,2.86-8.1,3.09-10.16.52s-.87-7,2.67-9.81,8.1-3.09,10.16-.53S203.15,251.82,199.61,254.67Z" style="fill: rgb(38, 50, 56); transform-origin: 195.865px 250.033px;" id="ell1w9dc8ip3" class="animable"></path><g id="elsoqe5koux49"><path d="M199.61,254.67c-3.55,2.86-8.1,3.09-10.16.52s-.87-7,2.67-9.81,8.1-3.09,10.16-.53S203.15,251.82,199.61,254.67Z" style="fill: rgb(255, 255, 255); opacity: 0.7; transform-origin: 195.865px 250.033px;" class="animable"></path></g><path d="M191,230.49l3.42,3.74c2.38,5.53-5.88,8.4-5.88,8.4L185.21,245a3,3,0,0,1-3.89-.59l-2.8-2.86a3.17,3.17,0,0,1-.28-4.4l2.52-2.51a6.28,6.28,0,0,1,2.63-1.55Z" style="fill: rgb(255, 181, 115); transform-origin: 186.167px 237.978px;" id="el81f0bvabd2a" class="animable"></path><g id="elbwsgpebp8hd"><polygon points="187.88 180.39 200.88 209.49 203.22 178.06 187.88 180.39" style="opacity: 0.2; transform-origin: 195.55px 193.775px;" class="animable"></polygon></g><path d="M207.22,204.23s-17.64,24.82-17.2,27l4.18,5.95c33-21.14,30.45-32.33,30.45-32.33Z" style="fill: rgb(255, 181, 115); transform-origin: 207.354px 220.705px;" id="el5fzhc41gx28" class="animable"></path><path d="M224.65,204.86l-.15-1.13c0-.4-.07-.67-.15-1.27a32,32,0,0,0-4.47-12.07c-.53-.86-1.1-1.71-1.68-2.53L216.86,186c-.86-1.23-1.76-2.43-2.63-3.66-1.73-2.44-3.52-4.84-5.24-7.21l-2.53-3.48L205.32,170l-.4-.57c.07.15.14.3.21.47s.1.32.16.47l-.15-.36-.11-.26-.17-.37v0l0,.05a10.51,10.51,0,0,0-13.52-5.24c-9.26,6.91-5.11,7.48-6.45,8.51a9,9,0,0,0,0,2.11A8.52,8.52,0,0,0,185,176l.1.48.12.46.1.34.14.42c.13.34.16.43.23.6l.17.39c.2.42.31.65.43.88.21.39.38.69.53.95.31.51.57.92.83,1.31.5.79,1,1.47,1.45,2.16.94,1.36,1.89,2.61,2.84,3.87,1.92,2.49,3.83,4.9,5.82,7.27,1,1.17,2,2.36,3,3.51l1.47,1.69c.35.39.68.79,1,1.17a15.23,15.23,0,0,1,2.59,4.6Z" style="fill: rgb(255, 181, 115); transform-origin: 204.739px 184.747px;" id="el4a6yvgi6593" class="animable"></path><path d="M203.05,164.21c10.77,14.8,15.47,20.13,15.47,20.13s-15.15,15.58-28.07,11.15c0,0-6.88-18.06-8.6-24.79C179.24,160.48,195.68,154.09,203.05,164.21Z" style="fill: rgb(23, 86, 122); transform-origin: 200.046px 177.695px;" id="el8h0tnwqdhd7" class="animable"></path><path d="M166.23,129.23l-13.87,3.13a12.2,12.2,0,0,1-5,.41,6.14,6.14,0,0,1-4.67-4.51,3.73,3.73,0,0,1,.32-2.84,2.14,2.14,0,0,1,2.53-.92,6.15,6.15,0,0,1,3-5.41,5.86,5.86,0,0,1,6,.46c.48-1.51,2.32-2.26,3.89-2.06a9.15,9.15,0,0,1,4.19,2.1,13.78,13.78,0,0,0,4,2.49,10.56,10.56,0,0,0,3.39.51c5.15-.1,5.6,2.74,5.25,3.83a16.35,16.35,0,0,1-7,3.39,3,3,0,0,1-1.45,0C166.31,129.67,166.25,129.71,166.23,129.23Z" style="fill: rgb(38, 50, 56); transform-origin: 158.947px 125.162px;" id="elqlxgk1rvaj8" class="animable"></path><path d="M156.27,150.38c.06.73-.26,1.36-.73,1.41s-.92-.51-1-1.23.26-1.36.73-1.41S156.16,149.7,156.27,150.38Z" style="fill: rgb(38, 50, 56); transform-origin: 155.403px 150.47px;" id="el06w6z720k1l" class="animable"></path><path d="M159.33,140c.07.73-.26,1.36-.73,1.41s-.92-.51-1-1.23.27-1.36.73-1.41S159.23,139.36,159.33,140Z" style="fill: rgb(38, 50, 56); transform-origin: 158.464px 140.09px;" id="el1x78w4l6lvu" class="animable"></path><path d="M150.37,140.87c.07.73-.26,1.35-.72,1.41s-.93-.51-1-1.24.26-1.35.72-1.4S150.27,140.18,150.37,140.87Z" style="fill: rgb(38, 50, 56); transform-origin: 149.51px 140.961px;" id="elcqzjzdmt81g" class="animable"></path></g><defs>     <filter id="active" height="200%">         <feMorphology in="SourceAlpha" result="DILATED" operator="dilate" radius="2"></feMorphology>                <feFlood flood-color="#32DFEC" flood-opacity="1" result="PINK"></feFlood>        <feComposite in="PINK" in2="DILATED" operator="in" result="OUTLINE"></feComposite>        <feMerge>            <feMergeNode in="OUTLINE"></feMergeNode>            <feMergeNode in="SourceGraphic"></feMergeNode>        </feMerge>    </filter>    <filter id="hover" height="200%">        <feMorphology in="SourceAlpha" result="DILATED" operator="dilate" radius="2"></feMorphology>                <feFlood flood-color="#ff0000" flood-opacity="0.5" result="PINK"></feFlood>        <feComposite in="PINK" in2="DILATED" operator="in" result="OUTLINE"></feComposite>        <feMerge>            <feMergeNode in="OUTLINE"></feMergeNode>            <feMergeNode in="SourceGraphic"></feMergeNode>        </feMerge>            <feColorMatrix type="matrix" values="0   0   0   0   0                0   1   0   0   0                0   0   0   0   0                0   0   0   1   0 "></feColorMatrix>    </filter></defs></svg>